/* XPM */
static char *_480183251186[] = {
/* columns rows colors chars-per-pixel */
"40 60 163 2 ",
"   c #23053B",
".  c #3B2039",
"X  c #4E3538",
"o  c #5D4732",
"O  c #6C562F",
"+  c #7A642C",
"@  c #290745",
"#  c #2E084D",
"$  c #2A0747",
"%  c #2F0850",
"&  c #320953",
"*  c #350A5A",
"=  c #380B5F",
"-  c #3B0C63",
";  c #3E0D69",
":  c #43214A",
">  c #5D385E",
",  c #410E6E",
"<  c #440F72",
"1  c #461077",
"2  c #49117C",
"3  c #471079",
"4  c #74496E",
"5  c #877027",
"6  c #937C23",
"7  c #987C36",
"8  c #88655C",
"9  c #916672",
"0  c #AB7E77",
"q  c #B59E0C",
"w  c #A0881C",
"e  c #AB9317",
"r  c #B79E1F",
"t  c #A08821",
"y  c #B99E27",
"u  c #C0A800",
"i  c #CAB101",
"p  c #D4BB00",
"a  c #D7B739",
"s  c #C6A831",
"d  c #DDC400",
"f  c #E6CC00",
"g  c #E0C40E",
"h  c #E2C618",
"j  c #E4C81A",
"k  c #E0C413",
"l  c #E1C33D",
"z  c #AB894F",
"x  c #AE8A5C",
"c  c #B6934D",
"v  c #C49F5D",
"b  c #CCA850",
"n  c #DDBB53",
"m  c #DBB753",
"M  c #D9B367",
"N  c #CEA175",
"B  c #D8AF78",
"V  c #D3A877",
"C  c #DAB478",
"Z  c #DDB879",
"A  c #D4AB65",
"S  c #4E1283",
"D  c #501387",
"F  c #53148C",
"G  c #561691",
"H  c #581695",
"J  c #5B179B",
"K  c #5D189E",
"L  c #6B2A98",
"P  c #5E18A0",
"I  c #611AA5",
"U  c #651AAB",
"Y  c #691CB2",
"T  c #6E1EBA",
"R  c #711FBF",
"E  c #731FC2",
"W  c #7420C5",
"Q  c #7721C9",
"!  c #7921CC",
"~  c #7D22D3",
"^  c #874C97",
"/  c #935B97",
"(  c #AF7F82",
")  c #AD7499",
"_  c #BA7BAD",
"`  c #B772BA",
"'  c #8430C6",
"]  c #8225DC",
"[  c #8626E3",
"{  c #8827E7",
"}  c #8A27E9",
"|  c #8D29ED",
" . c #912CEE",
".. c #9531EF",
"X. c #9934EF",
"o. c #9738E4",
"O. c #9B36F0",
"+. c #9E3AF0",
"@. c #A03FF1",
"#. c #9F50CA",
"$. c #9642D0",
"%. c #A453CF",
"&. c #A149DA",
"*. c #BB75C7",
"=. c #BF7CC8",
"-. c #B66CD3",
";. c #B466DE",
":. c #B163D1",
">. c #BB73D3",
",. c #BE79D4",
"<. c #AD57E8",
"1. c #B15EE8",
"2. c #A343F1",
"3. c #A649F2",
"4. c #A94DF2",
"5. c #AD54F3",
"6. c #AF59F4",
"7. c #B15DF4",
"8. c #A54AE6",
"9. c #B96EEA",
"0. c #B667E9",
"q. c #BF79EB",
"w. c #BC73EA",
"e. c #B463F3",
"r. c #B768F4",
"t. c #B96DF4",
"y. c #BD74F5",
"u. c #BF78F6",
"i. c #C17EE0",
"p. c #C37FEC",
"a. c #C17CF6",
"s. c #BD8B88",
"d. c #CF9F86",
"f. c #C38D92",
"g. c #C89494",
"h. c #D09F96",
"j. c #D6AB88",
"k. c #D3A488",
"l. c #D9B088",
"z. c #D2A396",
"x. c #C186A1",
"c. c #C589AF",
"v. c #C388A6",
"b. c #CA94A4",
"n. c #CE9AA3",
"m. c #C78ABE",
"M. c #C98FBD",
"N. c #CF9AB1",
"B. c #CE98B8",
"V. c #D09BB1",
"C. c #D2A1A4",
"Z. c #D3A3B3",
"A. c #D3A1BF",
"S. c #D09ACB",
"D. c #C484D5",
"F. c #C88CD0",
"G. c #C484E0",
"H. c #C788ED",
"J. c #C584F7",
"K. c #C98CF7",
"L. c #CA8FF8",
"P. c #C788F7",
"I. c None",
/* pixels */
"I.I.I.I.I.I.I.I.I.I.I.I.I.I.I.I.I.I.I.I.I.I.I.I.I.I.I.I.I.I.I.I.I.I.I.I.I.I.I.I.",
"I.I.I.I.I.I.I.I.I.I.I.I.I.I.I.I.I.I.I.I.I.I.I.I.I.I.I.I.I.I.I.I.I.I.I.I.I.I.I.I.",
"I.I.I.I.I.I.I.I.I.I.I.I.I.I.I.I.I.I.I.I.I.I.I.I.I.I.I.I.I.I.I.I.I.I.I.I.I.I.I.I.",
"I.I.I.I.I.I.I.I.I.I.I.I.I.I.I.I.I.I.I.I.I.I.I.I.I.I.I.I.I.I.I.I.I.I.I.I.I.I.I.I.",
"I.I.I.I.I.I.I.I.I.I.I.I.I.I.I.I.I.I.I.I.I.I.I.I.I.I.I.I.I.I.I.I.I.I.I.I.I.I.I.I.",
"I.I.I.I.I.I.I.I.I.I.I.I.I.I.I.I.f f f f f f f f I.I.I.I.I.I.I.I.I.I.I.I.I.I.I.I.",
"I.I.I.I.I.I.I.I.I.I.I.I.I.f f f f f f f f f f f f f I.I.I.I.I.I.I.I.I.I.I.I.I.I.",
"I.I.I.I.I.I.I.I.I.I.I.f f f f f f f j l j j f f f f f f I.I.I.I.I.I.I.I.I.I.I.I.",
"I.I.I.I.I.I.I.I.I.I.f f f f f Z A.H.L.L.L.K.S.N.M f f f f f I.I.I.I.I.I.I.I.I.I.",
"I.I.I.I.I.I.I.I.I.f f f f Z S.a.u.y.y.u.J.P.J.y.r.=.m f f f f I.I.I.I.I.I.I.I.I.",
"I.I.I.I.I.I.I.I.f f f f Z.a.t.7.0.-.N.m.G.u.u.y.e.5.3.x.f f f f I.I.I.I.I.I.I.I.",
"I.I.I.I.I.I.I.f f f f Z.y.e.<.g.f f f f f C.y.r.e.5.2.+._ f f f f I.I.I.I.I.I.I.",
"I.I.I.I.I.I.f f f f Z.y.7.*.h f f f j.N.D.t.e.5.4.3.+.O...%.h f f f I.I.I.I.I.I.",
"I.I.I.I.I.I.f f f Z.y.7.c.f f h N.H.y.y.r.5.4.2.+.+.+.O...| #.f f f I.I.I.I.I.I.",
"I.I.I.I.I.f f f l.y.e.*.f f B p.a.J.u.y.e.5.+.X......... .| ] ) f f f I.I.I.I.I.",
"I.I.I.I.I.f f j G.e.;.h f z.a.J.J.J.y.e.5.3.+..... . . .| } ~ ! b f f I.I.I.I.I.",
"I.I.I.I.f f f C.t.5.d.f m H.J.P.a.y.6.4.+.O... .| | | | | { ~ E / f f f I.I.I.I.",
"I.I.I.I.f f h p.7.*.f h i.a.a.y.e.4.+.....| | | | | | | | { ~ E Y a f f I.I.I.I.",
"I.I.I.f f f z.t.5.V f n.y.y.t.7.3.X. .| } | | | | | | | | [ ~ T U 9 f f f I.I.I.",
"I.I.I.f f f i.e.;.f h w.y.y.7.3.X. .| | | | | | | | | | | { ~ E I L f f f I.I.I.",
"I.I.I.f f j.r.7.c.f n.t.r.e.4.O. .| | } | | | | | | | | | { ~ E U H c f f I.I.I.",
"I.I.f f f N.r.7.M f 9.r.e.5.+...} [ ] ~ ~ ~ ] [ { { | | | } [ E I G 9 f f f I.I.",
"I.I.f f f D.e.0.f h.e.e.7.3...[ ! W Y U U Y R ! ~ ~ } | | | ~ E U G 4 f f f I.I.",
"I.I.f f l t.r.,.f m.7.7.4.O.[ E I F 2 1 3 S H U ! ~ { } | | } E I G 3 f f f I.I.",
"I.I.f f B t.r.m.f 9.7.5.@.| E J 1 * @   @ * 1 H T ! ~ | | | ~ ~ I D , p f f I.I.",
"I.I.f f z.t.t.n.k.7.6.3...~ J ;         o . % S P E ~ { | | ~ W I S - y f f I.I.",
"I.f f f n.t.y.n.n.7.4.+.} Y <     o e d f f i 8 P E ~ } | | } W K 2 = y f f I.I.",
"I.f f f D.t.t.n.,.6.2...~ F &   + d f f f f f f ^ E ~ | | | ~ E G 1 & r f f I.I.",
"I.f f f ,.e.e.e.6.3.X.} T 2 @ X d f f f f f f f v ~ } | | | ~ E F , # d f f I.I.",
"I.f f f >.7.7.6.3.+...] I ,   6 f f f I.I.I.f f d $.| | | | ~ Y S - $ d f f I.I.",
"I.f f f -.6.5.4.2...| ! K ; @ u f f I.I.I.I.f f f _  . .| | W P 2 * X f f f I.I.",
"I.f f f :.3.3.2.O. .} W J 1 % d f f I.I.I.I.f f f v...| | ~ E P < % o f f f I.I.",
"I.f f f :.2.2.+.X.| [ W I 2 - d f f I.I.I.I.f f f x.O. .o.] T F , @ 6 f f f I.I.",
"I.f f f _ +.+.O...| { Q U G 3 f f f I.I.I.I.f f f c.+.&.f.] Y D *   q f f I.I.I.",
"I.f f f x.O.O.X...| } ~ T U H s f f I.I.I.I.f f f ;.2.f.f.[ Y 2 %   d f f I.I.I.",
"I.I.f f N ....X...| } ] ! E Y 0 f f f f f f f f B 7.<.h ` [ Y < @ O f f f I.I.I.",
"I.I.f f a  .|  .| | | [ [ ~ E ' k f f f f f f j i.7.k.a @.[ K =   e f f I.I.I.I.",
"I.I.f f f %.} | | | | { [ { { | %.A f f f f Z G.y.n.f b.@.~ D $ X f f f I.I.I.I.",
"I.I.f f f s.] ] } } | | | | | | ..+.*.b.M.G.u.y.C.f M 5. .Y ,   6 f f f I.I.I.I.",
"I.I.I.f f g ' ~ ] ] { | | |  . . ...X.2.5.e.M.n f n w.3.] D @ . d f f I.I.I.I.I.",
"I.I.I.f f f ( T E ! ] [ { | |  . . .o.` g.m f f C q.6.| P &   w f f f I.I.I.I.I.",
"I.I.I.I.f f f ^ Y T E ~ ] { } | | | f.f f f B S.y.7. .Y =   + f f f I.I.I.I.I.I.",
"I.I.I.I.f f f a L I I Y E ! ] [ { | ..8.>.0.r.e.4. .U -   o d f f f I.I.I.I.I.I.",
"I.I.I.I.I.f f f x G F G J U T E ~ [ | ..@.2.2.O.] J &   . i f f f I.I.I.I.I.I.I.",
"I.I.I.I.I.I.f f f z 3 3 2 S F J U T Q ~ [ [ ! U 3 @   . i f f f I.I.I.I.I.I.I.I.",
"I.I.I.I.I.I.f f f f s > - - - < 2 F H J J D < #     o p f f f I.I.I.I.I.I.I.I.I.",
"I.I.I.I.I.I.I.f f f f d 7 : $ # % % % % @         5 d f f f I.I.I.I.I.I.I.I.I.I.",
"I.I.I.I.I.I.I.I.I.f f f f d t o             . + i f f f f I.I.I.I.I.I.I.I.I.I.I.",
"I.I.I.I.I.I.I.I.I.I.f f f f f f p q 6 6 6 q f f f f f f I.I.I.I.I.I.I.I.I.I.I.I.",
"I.I.I.I.I.I.I.I.I.I.I.I.f f f f f f f f f f f f f f I.I.I.I.I.I.I.I.I.I.I.I.I.I.",
"I.I.I.I.I.I.I.I.I.I.I.I.I.I.f f f f f f f f f f I.I.I.I.I.I.I.I.I.I.I.I.I.I.I.I.",
"I.I.I.I.I.I.I.I.I.I.I.I.I.I.I.I.I.I.f f f I.I.I.I.I.I.I.I.I.I.I.I.I.I.I.I.I.I.I.",
"I.I.I.I.I.I.I.I.I.I.I.I.I.I.I.I.I.I.I.I.I.I.I.I.I.I.I.I.I.I.I.I.I.I.I.I.I.I.I.I.",
"I.I.I.I.I.I.I.I.I.I.I.I.I.I.I.I.I.I.I.I.I.I.I.I.I.I.I.I.I.I.I.I.I.I.I.I.I.I.I.I.",
"I.I.I.I.I.I.I.I.I.I.I.I.I.I.I.I.I.I.I.I.I.I.I.I.I.I.I.I.I.I.I.I.I.I.I.I.I.I.I.I.",
"I.I.I.I.I.I.I.I.I.I.I.I.I.I.I.I.I.I.I.I.I.I.I.I.I.I.I.I.I.I.I.I.I.I.I.I.I.I.I.I.",
"I.I.I.I.I.I.I.I.I.I.I.I.I.I.I.I.I.I.I.I.I.I.I.I.I.I.I.I.I.I.I.I.I.I.I.I.I.I.I.I.",
"I.I.I.I.I.I.I.I.I.I.I.I.I.I.I.I.I.I.I.I.I.I.I.I.I.I.I.I.I.I.I.I.I.I.I.I.I.I.I.I.",
"I.I.I.I.I.I.I.I.I.I.I.I.I.I.I.I.I.I.I.I.I.I.I.I.I.I.I.I.I.I.I.I.I.I.I.I.I.I.I.I.",
"I.I.I.I.I.I.I.I.I.I.I.I.I.I.I.I.I.I.I.I.I.I.I.I.I.I.I.I.I.I.I.I.I.I.I.I.I.I.I.I."
};
