/* XPM */
static char *_480183246254[] = {
/* columns rows colors chars-per-pixel */
"40 60 142 2 ",
"   c #23053B",
".  c #4D3536",
"X  c #5D4732",
"o  c #61473D",
"O  c #7A642C",
"+  c #7F643D",
"@  c #260641",
"#  c #290644",
"$  c #2C074A",
"%  c #2E084D",
"&  c #2F0850",
"*  c #320954",
"=  c #350A5B",
"-  c #380B5F",
";  c #3B0C64",
":  c #3E0D69",
">  c #410E6E",
",  c #430F71",
"<  c #461076",
"1  c #471079",
"2  c #4A117C",
"3  c #623867",
"4  c #683975",
"5  c #67484E",
"6  c #654749",
"7  c #694852",
"8  c #795755",
"9  c #88702B",
"0  c #937C23",
"q  c #987C35",
"w  c #9A7D3F",
"e  c #9B7E42",
"r  c #B59E0C",
"t  c #A0881C",
"y  c #AB9317",
"u  c #B79E1B",
"i  c #B69E13",
"p  c #A18826",
"a  c #AD9325",
"s  c #BB9E35",
"d  c #CAB100",
"f  c #D3BB00",
"g  c #D0B232",
"h  c #DEC400",
"j  c #E6CC00",
"k  c #E0C405",
"l  c #E1C517",
"z  c #E2C619",
"x  c #E4C91A",
"c  c #B88A7B",
"v  c #C09E4A",
"b  c #C9A843",
"n  c #DCB953",
"m  c #C69F61",
"M  c #CB9F74",
"N  c #D5AD65",
"B  c #DCB767",
"V  c #DDB968",
"C  c #D7AF78",
"Z  c #D9B179",
"A  c #E0BD68",
"S  c #4E1283",
"D  c #501387",
"F  c #53158D",
"G  c #561691",
"H  c #591796",
"J  c #5C179C",
"K  c #5D189D",
"L  c #5E18A0",
"P  c #621AA6",
"I  c #651BAC",
"U  c #691CB2",
"Y  c #6F1EBC",
"T  c #731FC1",
"R  c #7520C6",
"E  c #7721C9",
"W  c #7921CC",
"Q  c #7D22D2",
"!  c #854C96",
"~  c #8D4CA6",
"^  c #BB78BA",
"/  c #8225DC",
"(  c #8626E3",
")  c #8827E7",
"_  c #8A27E9",
"`  c #8C28ED",
"'  c #922DEE",
"]  c #9631EF",
"[  c #9A35EF",
"{  c #9B37F0",
"}  c #9E3CF0",
"|  c #A03FF1",
" . c #A555CF",
".. c #AE5DD7",
"X. c #BF7AC7",
"o. c #B469D2",
"O. c #B971D3",
"+. c #AD58E7",
"@. c #B15EE8",
"#. c #A344F1",
"$. c #A649F2",
"%. c #A94EF2",
"&. c #AC53F3",
"*. c #AF59F4",
"=. c #B15DF4",
"-. c #B260E8",
";. c #BD76EB",
":. c #B564F4",
">. c #B769F4",
",. c #B96DF4",
"<. c #BD74F5",
"1. c #C07BEB",
"2. c #C17CF6",
"3. c #B8809A",
"4. c #CF9F86",
"5. c #CF9D96",
"6. c #C89394",
"7. c #D3A397",
"8. c #D7AC97",
"9. c #D9AE97",
"0. c #DBB298",
"q. c #C387AF",
"w. c #C68DA2",
"e. c #CA92A3",
"r. c #D09EA4",
"t. c #C688BD",
"y. c #D09DB2",
"u. c #D7AAA5",
"i. c #D2A1A4",
"p. c #D5A8B3",
"a. c #C88BCA",
"s. c #CD97CB",
"d. c #C484D5",
"f. c #C78AD5",
"g. c #CD96D7",
"h. c #C485E1",
"j. c #C88CED",
"k. c #C88BE0",
"l. c #CD95E1",
"z. c #C483F7",
"x. c #C788F7",
"c. c None",
/* pixels */
"c.c.c.c.c.c.c.c.c.c.c.c.c.c.c.c.c.c.c.c.c.c.c.c.c.c.c.c.c.c.c.c.c.c.c.c.c.c.c.c.",
"c.c.c.c.c.c.c.c.c.c.c.c.c.c.c.c.c.c.c.c.c.c.c.c.c.c.c.c.c.c.c.c.c.c.c.c.c.c.c.c.",
"c.c.c.c.c.c.c.c.c.c.c.c.c.c.c.c.c.c.c.c.c.c.c.c.c.c.c.c.c.c.c.c.c.c.c.c.c.c.c.c.",
"c.c.c.c.c.c.c.c.c.c.c.c.c.c.c.c.c.c.c.c.c.c.c.c.c.c.c.c.c.c.c.c.c.c.c.c.c.c.c.c.",
"c.c.c.c.c.c.c.c.c.c.c.c.c.c.c.c.c.c.c.j j j j j j c.c.c.c.c.c.c.c.c.c.c.c.c.c.c.",
"c.c.c.c.c.c.c.c.c.c.c.c.c.c.c.c.j j j j j j j j j j j j j c.c.c.c.c.c.c.c.c.c.c.",
"c.c.c.c.c.c.c.c.c.c.c.c.c.c.c.j j j j j j j j j j j j j j j j j c.c.c.c.c.c.c.c.",
"c.c.c.c.c.c.c.c.c.c.c.c.c.j j j j j 0.p.g.g.g.s.u.0.Z j j j j j j c.c.c.c.c.c.c.",
"c.c.c.c.c.c.c.c.c.c.c.c.j j j j A l.z.2.<.2.2.z.x.x.z.;.t.4.j j j j c.c.c.c.c.c.",
"c.c.c.c.c.c.c.c.c.c.c.j j j j 9.z.,.=.&.&.=.>.<.2.z.<.>.&.#. .l j j c.c.c.c.c.c.",
"c.c.c.c.c.c.c.c.c.c.c.j j j 9.<.:.%.^ N z z z C 7.;.<.:.#.] ( c j j j c.c.c.c.c.",
"c.c.c.c.c.c.c.c.c.c.j j j 9.<.=...N j j j n C r.r.d.:.%.{ ` T ! j j j c.c.c.c.c.",
"c.c.c.c.c.c.c.c.c.j j j B <.=.o.z j j 5.d.<.,.>.:.&.%.| ' Q U H h j j c.c.c.c.c.",
"c.c.c.c.c.c.c.c.c.j j j f.:.+.n j z d.2.2.<.,.:.&.#.{ ' / Y K S s j j c.c.c.c.c.",
"c.c.c.c.c.c.c.c.j j j y.>.&.6.j x f.2.x.2.2.>.=.%.| { ` Q U G 1 s j j c.c.c.c.c.",
"c.c.c.c.c.c.c.j j j V <.*.q.j j a.z.x.2.<.:.&.#.| [ ] ` Q U G , e j j j c.c.c.c.",
"c.c.c.c.c.c.c.j j j s.>.@.z j r.2.z.2.,.&.#.{ ' ' ' ` _ Q I F , e j j j c.c.c.c.",
"c.c.c.c.c.c.j j j 8.2.>.5.j C 2.2.2.:.%.| ' ' ` ` ` ` ) W U F , e j j j c.c.c.c.",
"c.c.c.c.c.c.j j z j.2.a.j j h.2.2.:.%.| ' ` ` ` ` ` ` _ Q U G , w j j j c.c.c.c.",
"c.c.c.c.c.j j j u.x.2.Z j r.<.<.>.&.| ] ` ` ` ` ` ` ` _ Q U G , e j j j c.c.c.c.",
"c.c.c.c.c.j j x j.x.k.j B <.<.>.&.| ] ` ` ` ` ` ` ` ` _ Q U F , 7 j j j c.c.c.c.",
"c.c.c.c.c.j j 7.2.2.h.7.;.>.=.%.| ' ` _ ` ` ` ` ` ` ` _ Q U F , 5 j j j c.c.c.c.",
"c.c.c.c.j j j X.=.=.=.%.$.| [ ` _ ( ( _ ` ` ` ` ` ` ` _ Q I F > 5 j j j c.c.c.c.",
"c.c.c.c.j j j ..{ ] ' _ Q R Y Y T Q / _ ` ` ` ` ` ` ` _ Q I S : 6 j j j c.c.c.c.",
"c.c.c.c.j j j 3.Q R U H S 2 2 F I T / _ ` ` ` ` ` ` ` ) W I S ; + j j j c.c.c.c.",
"c.c.c.c.c.j j k ! F > * # # * 3 v T / ` ` ` ` ` ` ` ` ) W I S ; q j j j c.c.c.c.",
"c.c.c.c.c.j j j k 8 #     X p h b Q ` ` ] ` ` ` ` ` ` _ T P S ; q j j j c.c.c.c.",
"c.c.c.c.c.c.j j j j i r d j j j m _ ' { { ' ` ` ` ` ` ( W I S ; q j j j c.c.c.c.",
"c.c.c.c.c.c.c.j j j j j j j j j M [ { | { ` ` ` ` ` ` ) W P S : q j j j c.c.c.c.",
"c.c.c.c.c.c.c.c.j j j j j j j j 6.| #.| { ' ` ` ` ` ` _ W I S ; q j j j c.c.c.c.",
"c.c.c.c.c.c.c.c.c.c.c.c.c.j j j w.%.%.#.{ ` ` ` ` ` ` _ T L S ; q j j j c.c.c.c.",
"c.c.c.c.c.c.c.c.c.c.c.c.c.j j j e.&.%.%.{ ` ` ` ` ` ` ` T L S = q j j j c.c.c.c.",
"c.c.c.c.c.c.c.c.c.c.c.c.c.j j j e.*.&.#.{ ' ` ` ` ` ` ( R L 2 = a j j c.c.c.c.c.",
"c.c.c.c.c.c.c.c.c.c.c.c.c.j j j O.*.%.#.[ ' ` ` ` ` ` ( T K 1 = u j j c.c.c.c.c.",
"c.c.c.c.c.c.c.c.c.c.c.c.c.j j j O.&.%.#.] ` ` ` ` ` ` ( Y K < * u j j c.c.c.c.c.",
"c.c.c.c.c.c.c.c.c.c.c.c.c.j j j O.&.%.#.] ` ` ` ` ` ` / Y H , * u j j c.c.c.c.c.",
"c.c.c.c.c.c.c.c.c.c.c.c.c.j j j O.&.&.#.{ ` ` ` ` ` _ / Y G > & h j j c.c.c.c.c.",
"c.c.c.c.c.c.c.c.c.c.c.c.c.j j j @.&.%.| ' ` ` ` ` ` ` / U F : & h j j c.c.c.c.c.",
"c.c.c.c.c.c.c.c.c.c.c.c.c.j j z &.%.%.| ] ` ` ` ` ` _ Q U S : # h j j c.c.c.c.c.",
"c.c.c.c.c.c.c.c.c.c.c.c.c.j j z &.%.%.| ' ` ` ` ` ` _ Q I S = 6 j j j c.c.c.c.c.",
"c.c.c.c.c.c.c.c.c.c.c.c.c.j j z &.%.%.} ' ` ` ` ` ` ) W P 2 = o j j j c.c.c.c.c.",
"c.c.c.c.c.c.c.c.c.c.c.c.c.j j z %.%.#.} ' ` ` ` ` ` ( R J , & 9 j j j c.c.c.c.c.",
"c.c.c.c.c.c.c.c.c.c.c.c.c.j j z $.#.#.} ' ` ` _ _ ) Q U S = @ 0 j j j c.c.c.c.c.",
"c.c.c.c.c.c.c.c.c.c.c.c.c.j j z | } [ ' _ / / / Q T U D ; @   y j j c.c.c.c.c.c.",
"c.c.c.c.c.c.c.c.c.c.c.c.c.j j z ' ` ) Q T U I I L F , *       d j j c.c.c.c.c.c.",
"c.c.c.c.c.c.c.c.c.c.c.c.c.j j z / R U P F 2 , > : * @       X j j j c.c.c.c.c.c.",
"c.c.c.c.c.c.c.c.c.c.c.c.c.j j j ~ P D > = $ #             X d j j j c.c.c.c.c.c.",
"c.c.c.c.c.c.c.c.c.c.c.c.c.j j j g 4 ; #             . O y j j j j c.c.c.c.c.c.c.",
"c.c.c.c.c.c.c.c.c.c.c.c.c.c.j j j j a 0 0 0 0 t r f j j j j j j c.c.c.c.c.c.c.c.",
"c.c.c.c.c.c.c.c.c.c.c.c.c.c.c.j j j j j j j j j j j j j j j j c.c.c.c.c.c.c.c.c.",
"c.c.c.c.c.c.c.c.c.c.c.c.c.c.c.c.j j j j j j j j j j j j c.c.c.c.c.c.c.c.c.c.c.c.",
"c.c.c.c.c.c.c.c.c.c.c.c.c.c.c.c.c.c.c.j j j j c.c.c.c.c.c.c.c.c.c.c.c.c.c.c.c.c.",
"c.c.c.c.c.c.c.c.c.c.c.c.c.c.c.c.c.c.c.c.c.c.c.c.c.c.c.c.c.c.c.c.c.c.c.c.c.c.c.c.",
"c.c.c.c.c.c.c.c.c.c.c.c.c.c.c.c.c.c.c.c.c.c.c.c.c.c.c.c.c.c.c.c.c.c.c.c.c.c.c.c.",
"c.c.c.c.c.c.c.c.c.c.c.c.c.c.c.c.c.c.c.c.c.c.c.c.c.c.c.c.c.c.c.c.c.c.c.c.c.c.c.c.",
"c.c.c.c.c.c.c.c.c.c.c.c.c.c.c.c.c.c.c.c.c.c.c.c.c.c.c.c.c.c.c.c.c.c.c.c.c.c.c.c.",
"c.c.c.c.c.c.c.c.c.c.c.c.c.c.c.c.c.c.c.c.c.c.c.c.c.c.c.c.c.c.c.c.c.c.c.c.c.c.c.c.",
"c.c.c.c.c.c.c.c.c.c.c.c.c.c.c.c.c.c.c.c.c.c.c.c.c.c.c.c.c.c.c.c.c.c.c.c.c.c.c.c.",
"c.c.c.c.c.c.c.c.c.c.c.c.c.c.c.c.c.c.c.c.c.c.c.c.c.c.c.c.c.c.c.c.c.c.c.c.c.c.c.c.",
"c.c.c.c.c.c.c.c.c.c.c.c.c.c.c.c.c.c.c.c.c.c.c.c.c.c.c.c.c.c.c.c.c.c.c.c.c.c.c.c."
};
