/* XPM */
static char *_480183242366[] = {
/* columns rows colors chars-per-pixel */
"40 60 170 2 ",
"   c #23053B",
".  c #3B2039",
"X  c #4D3536",
"o  c #5D4732",
"O  c #6C562F",
"+  c #7A642C",
"@  c #2A0746",
"#  c #2B074A",
"$  c #2E084E",
"%  c #2F0850",
"&  c #310953",
"*  c #360A5B",
"=  c #3B0C64",
"-  c #3F0E6A",
";  c #410E6D",
":  c #430F71",
">  c #461076",
",  c #4A117D",
"<  c #471079",
"1  c #5A2579",
"2  c #613865",
"3  c #654749",
"4  c #73496C",
"5  c #877027",
"6  c #877028",
"7  c #937C23",
"8  c #927739",
"9  c #997851",
"0  c #A27E5A",
"q  c #845874",
"w  c #AE7F7E",
"e  c #B59E0C",
"r  c #A0881C",
"t  c #AB9317",
"y  c #AD9327",
"u  c #C0A800",
"i  c #CAB101",
"p  c #CBB210",
"a  c #DEBD3B",
"s  c #DBBB37",
"d  c #D8BB25",
"f  c #DEC400",
"g  c #E6CC00",
"h  c #E2C619",
"j  c #E4C91A",
"k  c #E1C416",
"l  c #E2C33D",
"z  c #AE8A5B",
"x  c #B58A72",
"c  c #C49E5C",
"v  c #CFA85B",
"b  c #DAB653",
"n  c #DDBA53",
"m  c #D5B24B",
"M  c #E0BF54",
"N  c #C69F64",
"B  c #D4AC64",
"V  c #DBB667",
"C  c #DFBC67",
"Z  c #D2A677",
"A  c #D4A977",
"S  c #D5AB78",
"D  c #DAB378",
"F  c #E1C154",
"G  c #4E1283",
"H  c #53158D",
"J  c #501387",
"K  c #561691",
"L  c #591696",
"P  c #5B179A",
"I  c #5D189E",
"U  c #773C93",
"Y  c #5E18A0",
"T  c #651BAB",
"R  c #6219A6",
"E  c #6A1CB3",
"W  c #6E1EBB",
"Q  c #711FBF",
"!  c #772DAF",
"~  c #731FC1",
"^  c #7520C6",
"/  c #7921CC",
"(  c #7721C9",
")  c #7D22D3",
"_  c #8B3FBB",
"`  c #8B5394",
"'  c #A97390",
"]  c #9A55B5",
"[  c #A15CB4",
"{  c #BB7BAD",
"}  c #BB78BB",
"|  c #AF6AB7",
" . c #8225DD",
".. c #8626E2",
"X. c #8827E7",
"o. c #8A27E9",
"O. c #8D29ED",
"+. c #922DEE",
"@. c #9631EF",
"#. c #9A34EF",
"$. c #9D3EE5",
"%. c #9B36F0",
"&. c #9E3BF0",
"*. c #A03FF1",
"=. c #A251CE",
"-. c #AA57D9",
";. c #BB75C6",
":. c #BF7CC8",
">. c #B76ED3",
",. c #B266D1",
"<. c #BB75D4",
"1. c #9E40E5",
"2. c #A246E6",
"3. c #AF5BE8",
"4. c #A343F1",
"5. c #A74AF2",
"6. c #A94EF2",
"7. c #AC54F3",
"8. c #AF59F4",
"9. c #B15DF4",
"0. c #B15EE8",
"q. c #BB72E7",
"w. c #B463F4",
"e. c #B769F4",
"r. c #B96DF4",
"t. c #BC73F5",
"y. c #BF78F6",
"u. c #B565E9",
"i. c #C07FD4",
"p. c #C17EC8",
"a. c #C07CE0",
"s. c #C17BF6",
"d. c #BE84A0",
"f. c #C99884",
"g. c #C38D92",
"h. c #CC9A95",
"j. c #C89394",
"k. c #D5A888",
"l. c #DBB389",
"z. c #D3A496",
"x. c #D6AA97",
"c. c #DCB699",
"v. c #C389A5",
"b. c #CF9CA3",
"n. c #CB94A3",
"m. c #C486BD",
"M. c #CE99B1",
"N. c #CD96BA",
"B. c #D19DB6",
"V. c #D19FA4",
"C. c #D2A2A4",
"Z. c #D7ABA5",
"A. c #D3A2B3",
"S. c #C383C9",
"D. c #C98DCA",
"F. c #C689C9",
"G. c #CE99CB",
"H. c #CC92CB",
"J. c #C78BD6",
"K. c #CB92D6",
"L. c #CF99D7",
"P. c #D19ECA",
"I. c #C98DE1",
"U. c #C586E6",
"Y. c #CC94E6",
"T. c #C583F7",
"R. c #C88AF7",
"E. c #C98DF8",
"W. c #D09AF9",
"Q. c None",
/* pixels */
"Q.Q.Q.Q.Q.Q.Q.Q.Q.Q.Q.Q.Q.Q.Q.Q.Q.Q.Q.Q.Q.Q.Q.Q.Q.Q.Q.Q.Q.Q.Q.Q.Q.Q.Q.Q.Q.Q.Q.Q.",
"Q.Q.Q.Q.Q.Q.Q.Q.Q.Q.Q.Q.Q.Q.Q.Q.Q.Q.Q.Q.Q.Q.Q.Q.Q.Q.Q.Q.Q.Q.Q.Q.Q.Q.Q.Q.Q.Q.Q.Q.",
"Q.Q.Q.Q.Q.Q.Q.Q.Q.Q.Q.Q.Q.Q.Q.Q.Q.Q.Q.Q.Q.Q.Q.Q.Q.Q.Q.Q.Q.Q.Q.Q.Q.Q.Q.Q.Q.Q.Q.Q.",
"Q.Q.Q.Q.Q.Q.Q.Q.Q.Q.Q.Q.Q.Q.Q.Q.Q.Q.Q.Q.Q.Q.Q.Q.Q.Q.Q.Q.Q.Q.Q.Q.Q.Q.Q.Q.Q.Q.Q.Q.",
"Q.Q.Q.Q.Q.Q.Q.Q.Q.Q.Q.Q.Q.Q.Q.Q.g g g g g g g g g Q.Q.Q.Q.Q.Q.Q.Q.Q.Q.Q.Q.Q.Q.Q.",
"Q.Q.Q.Q.Q.Q.Q.Q.Q.Q.Q.Q.Q.g g g g g g g g g g g g g g g Q.Q.Q.Q.Q.Q.Q.Q.Q.Q.Q.Q.",
"Q.Q.Q.Q.Q.Q.Q.Q.Q.Q.Q.g g g g g g g j C D F j g g g g g g g Q.Q.Q.Q.Q.Q.Q.Q.Q.Q.",
"Q.Q.Q.Q.Q.Q.Q.Q.Q.g g g g g g l.B.Y.T.R.E.E.R.K.B.V g g g g g g Q.Q.Q.Q.Q.Q.Q.Q.",
"Q.Q.Q.Q.Q.Q.Q.Q.g g g g h Z.I.s.t.r.r.s.s.T.T.s.s.r.q.h.g g g g g Q.Q.Q.Q.Q.Q.Q.",
"Q.Q.Q.Q.Q.Q.Q.g g g g l.I.t.9.8.0.>.n.n.m.U.s.s.y.r.w.7.>.Z g g g g Q.Q.Q.Q.Q.Q.",
"Q.Q.Q.Q.Q.Q.g g g j A.y.w.7.} Z g g g g g j z.t.e.w.9.7.5.4.{ g g g g Q.Q.Q.Q.Q.",
"Q.Q.Q.Q.Q.g g g M K.r.9.;.V g g g F k.V.J.i.e.9.7.7.6.5.4.4.%.-.k g g g Q.Q.Q.Q.",
"Q.Q.Q.Q.g g g F U.r.8.v.g g g D H.s.s.t.r.w.7.5.&.&.&.&.&.&.#.+.=.k g g g Q.Q.Q.",
"Q.Q.Q.g g g F E.t.u.Z g g D H.T.T.s.s.t.w.8.5.&.#.@.+.@.#.#.@.O.o.[ g g g Q.Q.Q.",
"Q.Q.g g g l Y.s.q.n g g C.T.T.R.s.s.r.w.8.6.4.#.@.+.+.O.+.+.+.O...) x g g g Q.Q.",
"Q.Q.g g g P.R.y.h.g j B.T.R.T.s.r.9.4.&.@.+.O.O.o.O.O.O.O.O.+.X.) ~ ! g g g Q.Q.",
"Q.Q.g g D T.T.i.g g N.T.R.s.e.7.#.X.^ E T E W ~ ) ..X.O.O.O.O.../ W T z g g Q.Q.",
"Q.g g g b.t.y.J.g M.y.y.t.9.&...E H < ; - G K T ~ )  .X.X.O.O.../ E P q g g g Q.",
"Q.g g g >.8.w.w.q.r.r.w.7.+.~ K ; #     # = , P T ~ )  ...O.O...^ T K 1 g g g Q.",
"Q.g g g d.%.4.5.7.8.6.&.o.E < @       o o 3 2 J Y E ~ )  .o.O. .^ R J : f g g Q.",
"Q.Q.g g B X.O.+.@.@.O.) I =       + i g g g g z I E ~ ) ..O.O...^ P , = y g g Q.",
"Q.Q.g g g ' ^ ^ ~ ~ R G *     X e g g g g g g d E ` _  .o.O.O.) E K > & i g g Q.",
"Q.Q.Q.g g g ` Y K G - %     o f g g g g g g m ] [ g g.+.@.@.O. .T G = # g g g Q.",
"Q.Q.Q.g g g i 4 : = $ @   6 g g g g g g h v.2.$.a g j.*.%.%.O.~ P ; #   f g g Q.",
"Q.Q.Q.Q.g g g f 4 = & & 9 f g g g g b n.0.7.3.n g g p.7.4.&.o.E , &   O g g g Q.",
"Q.Q.Q.Q.Q.g g g g 0 1 9 g g g g Z m.9.9.9.p.n g g z.t.9.5.+./ H *     r g g Q.Q.",
"Q.Q.Q.Q.Q.Q.g g g g g g g k g.-.6.7.7.<.k.g g g Z.R.s.9.&. .P *     X g g g Q.Q.",
"Q.Q.Q.Q.Q.Q.Q.g g g g g d.$.&.4.5.;.Z g g g D L.R.s.w.&. .P *       e g g g Q.Q.",
"Q.Q.Q.Q.Q.Q.g g g g A -.&.%.-.j.b g g g D G.R.s.t.8.#.( J %       r g g g Q.Q.Q.",
"Q.Q.Q.Q.Q.g g g j M.9.5.2.j.g g g g x.I.T.s.t.9.&. .R ;       . t g g g g Q.Q.Q.",
"Q.Q.Q.Q.g g g l K.e.8.;.a g g g x.I.T.s.t.9.4.o.E < #       O i g g g g Q.Q.Q.Q.",
"Q.Q.Q.g g g F U.r.8.m.g g g x.I.T.T.s.e.5.O.E , #       O e g g g g g Q.Q.Q.Q.Q.",
"Q.Q.g g g j K.r.9.h.g g V K.R.R.T.t.8.#./ H *     . r i g g g g g Q.Q.Q.Q.Q.Q.Q.",
"Q.Q.g g g G.y.9.j.g g z.T.R.R.T.t.7.+.Q G $   . r i g g g g g g g g g Q.Q.Q.Q.Q.",
"Q.g g g x.s.w.m.g g M.T.R.R.s.e.6.@.^ K = $ 7 f g g g g g g g g g g g g g g Q.Q.",
"Q.g g g J.t.9.b g z.s.T.s.t.w.4.@.) T , 2 p g g g g g g g g g g g g g g g g Q.Q.",
"Q.g g M s.r.S.g V s.s.s.r.9.4.@.X.~ T U f g g g g g g g g g F c.Z.P.S.f.g g g Q.",
"Q.g g z.y.t.b.g F.t.s.e.8.*.@.O.o.) ~ ' c N s b Z S z.C.G.Y.W.W.E.t.6.+.v g g Q.",
"g g g N.t.t.D n r.r.e.8.4.+.O.O.X.) ) ) ..O.@.4.7.w.e.t.y.T.R.R.s.9.#.) x g g Q.",
"g g g i.r.y.b.N.e.w.7.4.#.O.O.O.o.o.o.....O.+.&.4.4.7.<.F.b.D D.w.4...T z g g g ",
"g g g i.e.r.e.w.9.5.4.%.+.O.O.O.o.O.o.o.O.| d.f.Z a h g g g g F.6.+.W J 9 g g g ",
"g g g >.8.9.9.7.4.*.%.+.+.O.O.O.O.O.O.O.O.{ b j k h h l D z.F.w.&.) L = 7 g g g ",
"g g g ,.6.6.6.4.&.#.+.+.O.O.O.O.O.o.O.O.O.+.%.4.7.8.e.t.y.t.e.7.O.W < % y g g Q.",
"g g g | %.%.@.O.O.o.X.X.X.X.X...X.o.X.o.O.O.@.&.5.7.9.w.w.9.7.%./ K *   u g g Q.",
"Q.g g g.O...) ~ E E W W ~ ~ ~ ~ ^ ^ ( / ) ..O.@.&.&.4.5.4.#.O./ K =   . g g g Q.",
"Q.g g B ~ E Y H G G G G G J K K H H K L Y R E ~ ~ ) ) / Q E P > $     + g g g Q.",
"Q.g g g U K : = % % % & & * * * * * * * = = - - - - - = * & @         e g g Q.Q.",
"Q.g g g z - %                                                       5 g g g Q.Q.",
"Q.Q.g g g f f e e t 7 7 7 o o o o o o o o o o o o o o o 5 7 7 t e u g g g g Q.Q.",
"Q.Q.g g g g g g g g g g g g g g g g g g g g g g g g g g g g g g g g g g g Q.Q.Q.",
"Q.Q.Q.Q.g g g g g g g g g g g g g g g g g g g g g g g g g g g g g g g Q.Q.Q.Q.Q.",
"Q.Q.Q.Q.Q.Q.Q.Q.Q.Q.g g g g g g g g g g g g g g g g g g g g g Q.Q.Q.Q.Q.Q.Q.Q.Q.",
"Q.Q.Q.Q.Q.Q.Q.Q.Q.Q.Q.Q.Q.Q.Q.Q.Q.Q.Q.Q.Q.Q.Q.Q.Q.Q.Q.Q.Q.Q.Q.Q.Q.Q.Q.Q.Q.Q.Q.Q.",
"Q.Q.Q.Q.Q.Q.Q.Q.Q.Q.Q.Q.Q.Q.Q.Q.Q.Q.Q.Q.Q.Q.Q.Q.Q.Q.Q.Q.Q.Q.Q.Q.Q.Q.Q.Q.Q.Q.Q.Q.",
"Q.Q.Q.Q.Q.Q.Q.Q.Q.Q.Q.Q.Q.Q.Q.Q.Q.Q.Q.Q.Q.Q.Q.Q.Q.Q.Q.Q.Q.Q.Q.Q.Q.Q.Q.Q.Q.Q.Q.Q.",
"Q.Q.Q.Q.Q.Q.Q.Q.Q.Q.Q.Q.Q.Q.Q.Q.Q.Q.Q.Q.Q.Q.Q.Q.Q.Q.Q.Q.Q.Q.Q.Q.Q.Q.Q.Q.Q.Q.Q.Q.",
"Q.Q.Q.Q.Q.Q.Q.Q.Q.Q.Q.Q.Q.Q.Q.Q.Q.Q.Q.Q.Q.Q.Q.Q.Q.Q.Q.Q.Q.Q.Q.Q.Q.Q.Q.Q.Q.Q.Q.Q.",
"Q.Q.Q.Q.Q.Q.Q.Q.Q.Q.Q.Q.Q.Q.Q.Q.Q.Q.Q.Q.Q.Q.Q.Q.Q.Q.Q.Q.Q.Q.Q.Q.Q.Q.Q.Q.Q.Q.Q.Q.",
"Q.Q.Q.Q.Q.Q.Q.Q.Q.Q.Q.Q.Q.Q.Q.Q.Q.Q.Q.Q.Q.Q.Q.Q.Q.Q.Q.Q.Q.Q.Q.Q.Q.Q.Q.Q.Q.Q.Q.Q.",
"Q.Q.Q.Q.Q.Q.Q.Q.Q.Q.Q.Q.Q.Q.Q.Q.Q.Q.Q.Q.Q.Q.Q.Q.Q.Q.Q.Q.Q.Q.Q.Q.Q.Q.Q.Q.Q.Q.Q.Q."
};
