/* XPM */
static char *_480183238210[] = {
/* columns rows colors chars-per-pixel */
"40 60 171 2 ",
"   c #23053B",
".  c #3B2039",
"X  c #4D3536",
"o  c #5D4732",
"O  c #6C562F",
"+  c #684F3B",
"@  c #7A642C",
"#  c #290746",
"$  c #2B0749",
"%  c #2E084E",
"&  c #260641",
"*  c #2F0850",
"=  c #320953",
"-  c #360A5B",
";  c #3B0C65",
":  c #3F0E6A",
">  c #400E6D",
",  c #440F72",
"<  c #451076",
"1  c #4A117D",
"2  c #471078",
"3  c #634744",
"4  c #6B4858",
"5  c #7B585C",
"6  c #774975",
"7  c #877027",
"8  c #937C23",
"9  c #947C28",
"0  c #98784D",
"q  c #A07E55",
"w  c #906670",
"e  c #A47972",
"r  c #B59E0C",
"t  c #A0881C",
"y  c #AB931B",
"u  c #B89E25",
"i  c #B99E2A",
"p  c #BB9E32",
"a  c #A18827",
"s  c #C0A800",
"d  c #CAB102",
"f  c #D3BB00",
"g  c #DEBE3B",
"h  c #DABB34",
"j  c #C8A83D",
"k  c #DEC400",
"l  c #E6CC00",
"z  c #E0C405",
"x  c #E1C515",
"c  c #E2C619",
"v  c #E4C919",
"b  c #E2C43D",
"n  c #AE8A5C",
"m  c #B38A69",
"M  c #DBB653",
"N  c #DEBC53",
"B  c #D1AD4F",
"V  c #D5AC65",
"C  c #DAB467",
"Z  c #DEBA68",
"A  c #CEA275",
"S  c #D5AA77",
"D  c #DAB278",
"F  c #4E1284",
"G  c #501386",
"H  c #53148C",
"J  c #561691",
"K  c #581695",
"L  c #5B179A",
"P  c #5D189D",
"I  c #622888",
"U  c #5F18A1",
"Y  c #6119A4",
"T  c #661BAC",
"R  c #6B1DB4",
"E  c #6E1EBB",
"W  c #701EBE",
"Q  c #752DAB",
"!  c #792DB2",
"~  c #7E4B86",
"^  c #721FC1",
"/  c #7520C6",
"(  c #7921CC",
")  c #7720C8",
"_  c #7D22D2",
"`  c #B47F8F",
"'  c #A2679B",
"]  c #924DAF",
"[  c #934DB1",
"{  c #A15CB5",
"}  c #B879AC",
"|  c #B26EB7",
" . c #8225DC",
".. c #8430C6",
"X. c #8626E2",
"o. c #8827E6",
"O. c #8A27E9",
"+. c #8D29ED",
"@. c #922DEE",
"#. c #9631EF",
"$. c #9934EF",
"%. c #9636E3",
"&. c #9B36F0",
"*. c #9D3AF0",
"=. c #A03FF1",
"-. c #9F50CA",
";. c #9C45D7",
":. c #9C4FC5",
">. c #AA5AD1",
",. c #A453CF",
"<. c #B973C6",
"1. c #BD78C7",
"2. c #B76DD3",
"3. c #BB73D4",
"4. c #BB72DF",
"5. c #B46BC5",
"6. c #A448E6",
"7. c #AD58E7",
"8. c #A344F1",
"9. c #A74AF2",
"0. c #AA4FF3",
"q. c #AD54F3",
"w. c #AF59F4",
"e. c #B15CF4",
"r. c #B86BEA",
"t. c #BD76E7",
"y. c #B564F4",
"u. c #B769F4",
"i. c #B96DF4",
"p. c #BD74F5",
"a. c #BF78F6",
"s. c #C07DC8",
"d. c #C07BEB",
"f. c #C17BF6",
"g. c #BA8A81",
"h. c #BD83A0",
"j. c #C28C92",
"k. c #CC9995",
"l. c #C99494",
"z. c #D09F96",
"x. c #D6AB88",
"c. c #DBB389",
"v. c #D3A497",
"b. c #DDB799",
"n. c #C68CA9",
"m. c #C891A3",
"M. c #C78CB9",
"N. c #CC96B4",
"B. c #D29FBF",
"V. c #D09EA4",
"C. c #D6A9A5",
"Z. c #D3A2A5",
"A. c #D3A2B3",
"S. c #C78ACA",
"D. c #C88BCA",
"F. c #C384D5",
"G. c #CF99D7",
"H. c #CB93D7",
"J. c #D09CD7",
"K. c #D4A4C0",
"L. c #D6AAC6",
"P. c #D2A1D7",
"I. c #C788E8",
"U. c #C583F7",
"Y. c #C98BF7",
"T. c #C98EF8",
"R. c #C788F7",
"E. c #CD95F8",
"W. c #CC92EE",
"Q. c #D2A0EE",
"!. c None",
/* pixels */
"!.!.!.!.!.!.!.!.!.!.!.!.!.!.!.!.!.!.!.!.!.!.!.!.!.!.!.!.!.!.!.!.!.!.!.!.!.!.!.!.",
"!.!.!.!.!.!.!.!.!.!.!.!.!.!.!.!.!.!.!.!.!.!.!.!.!.!.!.!.!.!.!.!.!.!.!.!.!.!.!.!.",
"!.!.!.!.!.!.!.!.!.!.!.!.!.!.!.!.!.!.!.!.!.!.!.!.!.!.!.!.!.!.!.!.!.!.!.!.!.!.!.!.",
"!.!.!.!.!.!.!.!.!.!.!.!.!.!.!.!.!.!.!.!.!.!.!.!.!.!.!.!.!.!.!.!.!.!.!.!.!.!.!.!.",
"!.!.!.!.!.!.!.!.!.!.!.!.!.!.!.!.!.!.l l l l l l l l l !.!.!.!.!.!.!.!.!.!.!.!.!.",
"!.!.!.!.!.!.!.!.!.!.!.!.!.l l l l l l l l l l l l l l l l !.!.!.!.!.!.!.!.!.!.!.",
"!.!.!.!.!.!.!.!.!.!.l l l l l l l l l l l l l l l l l l l l l !.!.!.!.!.!.!.!.!.",
"!.!.!.!.!.!.!.!.l l l l l l l v Z c.C.C.K.H.G.G.G.H.Z.C l l l l l !.!.!.!.!.!.!.",
"!.!.!.!.!.!.l l l l l l c.A.H.f.f.f.a.p.a.f.U.R.Y.R.a.y.1.M l l l !.!.!.!.!.!.!.",
"!.!.!.!.!.l l l l b K.W.p.i.y.e.w.q.q.q.e.4.i.p.f.f.p.y.9.6.A l l l !.!.!.!.!.!.",
"!.!.!.!.!.l l l c.W.a.y.q.7.<.m.S V c c c l c v x.d.u.w.8.#.%.B l l l !.!.!.!.!.",
"!.!.!.!.l l l c.U.p.e.<.A l l l l l l c C D v.V.M.y.e.0.*.+. .[ l l l !.!.!.!.!.",
"!.!.!.!.l l l I.a.y.m.l l l b x.N.F.d.p.p.i.i.y.w.q.8.*.#.o.^ ^ m l l l !.!.!.!.",
"!.!.!.!.l l c.f.i.M.l l S S.f.f.f.p.p.i.i.y.y.q.0.8.*.#.+. .^ T ~ l l l !.!.!.!.",
"!.!.!.l l l N.a.i.x.l z.i.f.U.f.f.p.i.u.y.y.e.q.8.=.&.@.O._ R K F k l l !.!.!.!.",
"!.!.!.l l l F.f.i.b M p.f.f.f.p.y.e.q.q.0.9.8.*.&.&.@.@.o.^ Y F > p l l !.!.!.!.",
"!.!.!.l l l t.p.p.N F.p.i.i.e.8.#.+.o. .X.o.O.+.+.+.+.+. .E K , - u l l !.!.!.!.",
"!.!.!.l l v y.i.p.p.y.q.9.&.o.E P J H K U R ^  .o.+.+.O._ T F ; # d l l !.!.!.!.",
"!.!.!.l l v e.y.e.0.*.O.( Y F ; = = - ; 1 L R ^ _ o.o. .^ L , % . l l l !.!.!.!.",
"!.!.!.l l c 8.8.*.+.W K , = &         % : H Y E ^ X. ._ R F -   O l l l !.!.!.!.",
"!.!.!.l l g #.O.^ P : #         o 8 y u p w U R ^ _  ._ Y , $   t l l !.!.!.!.!.",
"!.!.!.l l c  .E J -       O t f l l l l l k ! ^ _  . .^ Y > # X l l l !.!.!.!.!.",
"!.!.!.l l l ! F =     @ d l l l l l l l l l -.:.| O.o.^ Y , = a l l l !.!.!.!.!.",
"!.!.!.l l l w ; . 7 f l l l l l l l l l c n.7.c c #.@. .R H 5 l l l !.!.!.!.!.!.",
"!.!.!.!.l l k i z l l l l l l g D c.C.A.I.d.S l S 8.*.@._ Q j l l l l l !.!.!.!.",
"!.!.!.!.l l l l l l l l l l l F.U.T.T.f.d.N l D r.q.8.#.O._ ] g.x l l l l !.!.!.",
"!.!.!.!.!.l l l l l !.!.l l l n.y.i.y.w.2.m.3.e.e.q.8.&.@.+.O.+.%.j.l l l l !.!.",
"!.!.!.!.!.!.!.!.!.l l l l l l k.&.#.O.X.X.+.@.=.8.8.=.&.#.@.#.#.@.+.} l l l !.!.",
"!.!.!.!.!.!.!.l l l l l l l l c ..T H 1 G P ^ X.@.@.#.@.@.#.&.&.@.+. .g.l l l !.",
"!.!.!.!.!.l l l l l b D l l l l e > % + 3 4 I R ^  .o.O.O.@.#.#.@.X._ ! k l l !.",
"!.!.!.!.l l l l b L.U.y.k.l l l l i k l l l l m W ^ _ _  .O.+.@.O._ E Y n l l !.",
"!.!.!.l l l l b.Q.E.f.e.5.l l l l l l l l l l z ^ W ^ _  .O.+.+. .^ Y J q l l l ",
"!.!.l l l v L.E.T.U.i.q.&.A l l l l l l l l l h ( ^ ' _  .+.+.+._ E L 1 4 l l l ",
"!.l l l v P.T.U.I.s.e.9.&.,.l l l l l l l l l j.X.g.l %.+.@.#.+._ T H : 4 l l l ",
"!.l l l K.T.U.M.z l e.9.*.#.} l l l l l l l k.6.>.l l >.&.&.$.+.( U 1 ; 3 l l l ",
"!.l l D R.U.d.c l k.q.0.8.&.&.| M l l c v.t.e.7.M l M q.9.8.&.o.^ K : % 9 l l l ",
"l l l D.a.p.S.l C e.w.q.9.*.&.*.8.2.3.y.y.w.s.v l l S.y.w.8.$.X.T G -   t l l !.",
"l l l 3.e.y.r.N.r.e.q.0.8.&.#.#.&.&.=.8.<.S l l l A.a.p.e.8.@._ U : &   s l l !.",
"l l l } 8.9.q.e.e.q.0.8.*.#.@.+.%.j.A N l l l v K.T.U.p.q.*.o.R F =   X l l l !.",
"!.l l V @.#.=.8.9.9.8.&.#.@.+.+.;.A x c c D A.W.T.U.p.e.8.@.( J -     t l l l !.",
"!.l l l { X.+.@.&.#.#.@.+.+.O.+.@.$.8.q.y.f.U.U.f.p.e.8.@._ P ;     X l l l !.!.",
"!.!.l l B ^ ( (  .o.O.+.+.+.O.+.@.#.8.q.y.p.p.p.i.q.8.+.( Y ;       s l l l !.!.",
"!.!.l l l e T T R ^ _ X.O.O.+.@.#.&.9.q.e.y.e.q.8.#.X.E H ;       t l l l !.!.!.",
"!.!.!.l l f ~ K L Y R ^ _ _ o.+.@.#.*.*.=.*.$.+. .W P , =       7 l l l !.!.!.!.",
"!.!.!.l l l k 6 G G H P U T R E ^ ( ( ( ( ^ R U H , -         t l l l l !.!.!.!.",
"!.!.!.!.l l l k 0 , , , 2 F F F F H H F 1 , : - $         X r l l l l !.!.!.!.!.",
"!.!.!.!.!.l l l l 0 ; = = = = = = = = % $ &           . 8 k l l l l !.!.!.!.!.!.",
"!.!.!.!.!.!.l l l l d +                           O t k l l l l l !.!.!.!.!.!.!.",
"!.!.!.!.!.!.!.l l l l l f r a 8 8 o o o 8 8 t r k l l l l l l !.!.!.!.!.!.!.!.!.",
"!.!.!.!.!.!.!.!.!.l l l l l l l l l l l l l l l l l l l l !.!.!.!.!.!.!.!.!.!.!.",
"!.!.!.!.!.!.!.!.!.!.!.l l l l l l l l l l l l l l l !.!.!.!.!.!.!.!.!.!.!.!.!.!.",
"!.!.!.!.!.!.!.!.!.!.!.!.!.!.!.l l l l l l l !.!.!.!.!.!.!.!.!.!.!.!.!.!.!.!.!.!.",
"!.!.!.!.!.!.!.!.!.!.!.!.!.!.!.!.!.!.!.!.!.!.!.!.!.!.!.!.!.!.!.!.!.!.!.!.!.!.!.!.",
"!.!.!.!.!.!.!.!.!.!.!.!.!.!.!.!.!.!.!.!.!.!.!.!.!.!.!.!.!.!.!.!.!.!.!.!.!.!.!.!.",
"!.!.!.!.!.!.!.!.!.!.!.!.!.!.!.!.!.!.!.!.!.!.!.!.!.!.!.!.!.!.!.!.!.!.!.!.!.!.!.!.",
"!.!.!.!.!.!.!.!.!.!.!.!.!.!.!.!.!.!.!.!.!.!.!.!.!.!.!.!.!.!.!.!.!.!.!.!.!.!.!.!.",
"!.!.!.!.!.!.!.!.!.!.!.!.!.!.!.!.!.!.!.!.!.!.!.!.!.!.!.!.!.!.!.!.!.!.!.!.!.!.!.!.",
"!.!.!.!.!.!.!.!.!.!.!.!.!.!.!.!.!.!.!.!.!.!.!.!.!.!.!.!.!.!.!.!.!.!.!.!.!.!.!.!.",
"!.!.!.!.!.!.!.!.!.!.!.!.!.!.!.!.!.!.!.!.!.!.!.!.!.!.!.!.!.!.!.!.!.!.!.!.!.!.!.!.",
"!.!.!.!.!.!.!.!.!.!.!.!.!.!.!.!.!.!.!.!.!.!.!.!.!.!.!.!.!.!.!.!.!.!.!.!.!.!.!.!."
};
