/* XPM */
static char *_480183234142[] = {
/* columns rows colors chars-per-pixel */
"40 60 152 2 ",
"   c #23053B",
".  c #3B2039",
"X  c #4D3536",
"o  c #5D4732",
"O  c #6C562F",
"+  c #7A642C",
"@  c #2A0746",
"#  c #2C074A",
"$  c #2E084D",
"%  c #270642",
"&  c #310953",
"*  c #360A5D",
"=  c #380B5F",
"-  c #3B0C64",
";  c #3E0D69",
":  c #56364B",
">  c #410E6D",
",  c #430F71",
"<  c #461077",
"1  c #471079",
"2  c #4A117C",
"3  c #654847",
"4  c #694853",
"5  c #764973",
"6  c #877027",
"7  c #88702B",
"8  c #937C25",
"9  c #A07E52",
"0  c #88597D",
"q  c #A57E65",
"w  c #B59E0C",
"e  c #A0881C",
"r  c #AB9317",
"t  c #AE932D",
"y  c #C0A800",
"u  c #C0A809",
"i  c #CAB100",
"p  c #D5BB00",
"a  c #CCB217",
"s  c #DABB2E",
"d  c #DFBF3B",
"f  c #C5A831",
"g  c #DDC400",
"h  c #E6CC00",
"j  c #E0C405",
"k  c #E2C619",
"l  c #E4C91A",
"z  c #E1C33C",
"x  c #AD8A59",
"c  c #B78A79",
"v  c #CBA84D",
"b  c #DBB753",
"n  c #DEBC53",
"m  c #D7AF66",
"M  c #DAB467",
"N  c #CFA376",
"B  c #D3A877",
"V  c #D6AD78",
"C  c #D0A476",
"Z  c #DBB478",
"A  c #DFBC7A",
"S  c #E1C154",
"D  c #4D1282",
"F  c #53158D",
"G  c #501386",
"H  c #561691",
"J  c #591797",
"K  c #5C179C",
"L  c #5D189E",
"P  c #5E18A0",
"I  c #6119A4",
"U  c #651AAA",
"Y  c #6C1DB6",
"T  c #6F1EBB",
"R  c #711FBF",
"E  c #721FC1",
"W  c #7520C5",
"Q  c #7921CC",
"!  c #7720C8",
"~  c #7C22D2",
"^  c #864C95",
"/  c #AF7F81",
"(  c #9E5CAF",
")  c #A55DBE",
"_  c #B671B9",
"`  c #C07FBC",
"'  c #8225DD",
"]  c #8B32D2",
"[  c #8626E3",
"{  c #8827E6",
"}  c #8A27E9",
"|  c #8D29ED",
" . c #922DEE",
".. c #9631EF",
"X. c #9A34EF",
"o. c #9839E4",
"O. c #9B37F0",
"+. c #9D3BF0",
"@. c #A03FF1",
"#. c #9341CB",
"$. c #9A43D7",
"%. c #AC5DD1",
"&. c #B362DE",
"*. c #B76BDF",
"=. c #BA72D3",
"-. c #B15EE8",
";. c #A343F1",
":. c #A94DF2",
">. c #A74AF2",
",. c #AC53F3",
"<. c #AF59F4",
"1. c #B15DF4",
"2. c #BD75EB",
"3. c #B564F4",
"4. c #B768F4",
"5. c #B96DF5",
"6. c #BC72F5",
"7. c #BF78F6",
"8. c #C17AF6",
"9. c #BA819F",
"0. c #CB9B85",
"q. c #CD9B95",
"w. c #D09F96",
"e. c #D7AC88",
"r. c #D4A887",
"t. c #D3A397",
"y. c #DEB899",
"u. c #C68BAF",
"i. c #C389A6",
"p. c #D09EA4",
"a. c #C180BC",
"s. c #C88EB9",
"d. c #CC95BD",
"f. c #CD98B5",
"g. c #D2A2A4",
"h. c #DAB0B3",
"j. c #C484C9",
"k. c #D19ECA",
"l. c #C484D5",
"z. c #C88BD6",
"x. c #CF9AD7",
"c. c #D7ACC0",
"v. c #D4A4D8",
"b. c #C382E0",
"n. c #C88AE7",
"m. c #CF99E8",
"M. c #C583F7",
"N. c #C98BF7",
"B. c #CA8FF8",
"V. c #CF99F9",
"C. c #D29DF9",
"Z. c None",
/* pixels */
"Z.Z.Z.Z.Z.Z.Z.Z.Z.Z.Z.Z.Z.Z.Z.Z.Z.Z.Z.Z.Z.Z.Z.Z.Z.Z.Z.Z.Z.Z.Z.Z.Z.Z.Z.Z.Z.Z.Z.Z.",
"Z.Z.Z.Z.Z.Z.Z.Z.Z.Z.Z.Z.Z.Z.Z.Z.Z.Z.Z.Z.Z.Z.Z.Z.Z.Z.Z.Z.Z.Z.Z.Z.Z.Z.Z.Z.Z.Z.Z.Z.",
"Z.Z.Z.Z.Z.Z.Z.Z.Z.Z.Z.Z.Z.Z.Z.Z.Z.Z.Z.Z.Z.Z.Z.Z.Z.Z.Z.Z.Z.Z.Z.Z.Z.Z.Z.Z.Z.Z.Z.Z.",
"Z.Z.Z.Z.Z.Z.Z.Z.Z.Z.Z.Z.Z.Z.Z.Z.Z.Z.Z.Z.Z.Z.Z.Z.Z.Z.Z.Z.Z.Z.Z.Z.Z.Z.Z.Z.Z.Z.Z.Z.",
"Z.Z.Z.Z.Z.Z.Z.Z.Z.Z.Z.Z.Z.Z.Z.Z.Z.h h h h h h h Z.Z.Z.Z.Z.Z.Z.Z.Z.Z.Z.Z.Z.Z.Z.Z.",
"Z.Z.Z.Z.Z.Z.Z.Z.Z.Z.Z.Z.Z.Z.Z.h h h h h h h h h h h h Z.Z.Z.Z.Z.Z.Z.Z.Z.Z.Z.Z.Z.",
"Z.Z.Z.Z.Z.Z.Z.Z.Z.Z.Z.Z.Z.Z.h h h h h h h h h h h h h h Z.Z.Z.Z.Z.Z.Z.Z.Z.Z.Z.Z.",
"Z.Z.Z.Z.Z.Z.Z.Z.Z.Z.Z.Z.Z.h h h S h.v.v.v.x.z.f.r.h h h h Z.Z.Z.Z.Z.Z.Z.Z.Z.Z.Z.",
"Z.Z.Z.Z.Z.Z.Z.Z.Z.Z.Z.Z.h h h S m.B.N.B.B.M.5.,...#.s h h Z.Z.Z.Z.Z.Z.Z.Z.Z.Z.Z.",
"Z.Z.Z.Z.Z.Z.Z.Z.Z.Z.Z.h h h S n.7.6.6.z.7.5.,...Q P q h h h Z.Z.Z.Z.Z.Z.Z.Z.Z.Z.",
"Z.Z.Z.Z.Z.Z.Z.Z.Z.Z.h h h l n.5.3.u.d h j.,. .W F ; a h h Z.Z.Z.Z.Z.Z.Z.Z.Z.Z.Z.",
"Z.Z.Z.Z.Z.Z.Z.Z.Z.Z.h h h d.5.<.q.h h q.:...W 2 & 7 h h h Z.Z.Z.Z.Z.Z.Z.Z.Z.Z.Z.",
"Z.Z.Z.Z.Z.Z.Z.Z.Z.h h h Z 6.1.u.h k u.,.+.~ D @ . g h h Z.Z.Z.Z.Z.Z.Z.Z.Z.Z.Z.Z.",
"Z.Z.Z.Z.Z.Z.Z.Z.Z.h h h 8.3.&.k h u.3.,. .U &   e h h h Z.Z.Z.Z.Z.Z.Z.Z.Z.Z.Z.Z.",
"Z.Z.Z.Z.Z.Z.Z.Z.h h h g.*.<.B h w.5.4.>.' D   o h h h Z.Z.Z.Z.Z.Z.Z.Z.Z.Z.Z.Z.Z.",
"Z.Z.Z.Z.Z.Z.Z.Z.h h l 2.1.a.h k 2.6.1...U *   w h h h Z.Z.Z.Z.Z.Z.Z.Z.Z.Z.Z.Z.Z.",
"Z.Z.Z.Z.Z.Z.Z.h h h f.4.<.n h j.6.4.;.E ,   O h h h Z.Z.Z.Z.Z.Z.Z.Z.Z.Z.Z.Z.Z.Z.",
"Z.Z.Z.Z.Z.Z.Z.h h n 6.1.u.h M 5.4.,.| J @   y h h h Z.Z.Z.Z.Z.Z.Z.Z.Z.Z.Z.Z.Z.Z.",
"Z.Z.Z.Z.Z.Z.h h h d.4.-.k h j.5.1.O.E -   + h h h Z.Z.Z.Z.Z.Z.Z.Z.Z.Z.Z.Z.Z.Z.Z.",
"Z.Z.Z.Z.Z.Z.h h n 6.3._ h V 4.4.:.{ F @   i h h Z.Z.Z.Z.Z.Z.Z.Z.Z.Z.Z.Z.Z.Z.Z.Z.",
"Z.Z.Z.Z.Z.h h h d.4.,.b h j.4.<.O.T ;   + h h h Z.Z.Z.Z.Z.Z.Z.Z.Z.Z.Z.Z.Z.Z.Z.Z.",
"Z.Z.Z.Z.Z.h h n 5.1._ h B 4.4.:.| J $   i h h Z.Z.Z.Z.Z.Z.Z.Z.Z.Z.Z.Z.Z.Z.Z.Z.Z.",
"Z.Z.Z.Z.h h h t.5.<.M h j.3.1.;.~ D $ O h h h Z.Z.Z.Z.Z.Z.h h h h h Z.Z.Z.Z.Z.Z.",
"Z.Z.Z.Z.h h h 8.4.=.h n 4.3.<...E D - t h h Z.h h h h h h h h h h h h h Z.Z.Z.Z.",
"Z.Z.Z.Z.h h e.6.5.q.h s.4.3.:. .T H < g h h h h h h h h h h h h h h h h Z.Z.Z.Z.",
"Z.Z.Z.h h h d.8.5.M h 2.4.<.>.| R P 0 h h h h h h h l A y.h.x.l.=.i.h h h Z.Z.Z.",
"Z.Z.Z.h h h l.8.6.l t.4.1.,.@.| Q W 9.h k m r.g.k.m.V.V.C.V.M.1.O.' j h h Z.Z.Z.",
"Z.Z.Z.h h z 6.7.6.k l.4.<.:.O.| ' ~ ] $.X.:.1.6.8.M.N.N.B.M.3.@.' Y f h h Z.Z.Z.",
"Z.Z.Z.h h V 4.5.6.j.4.<.:.;...| [ [ [ {  .O.>.*.j.p.e.Z e.3.@.' I < p h h Z.Z.Z.",
"Z.Z.Z.h h B :.<.1.<.,.;.@.O. .| } { [ $.0.N k h h h z t.*.+.Q F - @ g h h Z.Z.Z.",
"Z.Z.Z.h h C +.;.>.;.@.......| | | | | o.N k k M t.l.3.:. .T 1 #   o h h h Z.Z.Z.",
"Z.Z.Z.h h k | | |  .| | | | | | { | |  .O.;.,.3.3.1.;.| Y <       e h h h Z.Z.Z.",
"Z.Z.Z.h h h ( Q E E E E W Q ~ ' [ } | | O.@.:.1.,.;. .T 1 %     6 h h h Z.Z.Z.Z.",
"Z.Z.Z.Z.h h v U L H F F J I Y ! ~ } | ..+.;.,.:.;...E 2   X 6 y h h h h Z.Z.Z.Z.",
"Z.Z.Z.Z.h h h x D > - - , D K Y ~ }  ...+.@.@.@. .E F # e h h h h h h Z.Z.Z.Z.Z.",
"Z.Z.Z.Z.Z.h h h f 3 $ # & ; F U E } |  . ... .} E H *   i h h h h Z.Z.Z.Z.Z.Z.Z.",
"Z.Z.Z.Z.Z.h h h h h u 8 3 4 5 ^ E } | | | | } ~ U 2 #   g h h Z.Z.Z.Z.Z.Z.Z.Z.Z.",
"Z.Z.Z.Z.Z.Z.Z.h h h h h h h h c {  ... .| | } E P ; % o h h h Z.Z.Z.Z.Z.Z.Z.Z.Z.",
"Z.Z.Z.Z.Z.Z.Z.Z.h h h h h h h 9...O.O. .| } ~ T F -   6 h h h Z.Z.Z.Z.Z.Z.Z.Z.Z.",
"Z.Z.Z.Z.Z.Z.Z.Z.Z.Z.Z.h h h h %.@.;.+...| { ~ U , $   r h h Z.Z.Z.Z.Z.Z.Z.Z.Z.Z.",
"Z.Z.Z.Z.Z.Z.Z.Z.Z.Z.Z.Z.h h h &.:.>.;...} ' E H =   . g h h Z.Z.Z.Z.Z.Z.Z.Z.Z.Z.",
"Z.Z.Z.Z.Z.Z.Z.Z.Z.Z.Z.Z.h h k 1.1.,.;. .} E P , %   + h h h Z.Z.Z.Z.Z.Z.Z.Z.Z.Z.",
"Z.Z.Z.Z.Z.Z.Z.Z.Z.Z.Z.Z.h h V 3.1.:.+.| ~ U 2 $     i h h Z.Z.Z.Z.Z.Z.Z.Z.Z.Z.Z.",
"Z.Z.Z.Z.Z.Z.Z.Z.Z.Z.Z.Z.h h r.<.<.;...~ U D $     6 h h h Z.Z.Z.Z.Z.Z.Z.Z.Z.Z.Z.",
"Z.Z.Z.Z.Z.Z.Z.Z.Z.Z.Z.h h h i.;.+. .Q K , @     . g h h Z.Z.Z.Z.Z.Z.Z.Z.Z.Z.Z.Z.",
"Z.Z.Z.Z.Z.Z.Z.Z.Z.Z.Z.h h h _  .' R F -       . i h h h Z.Z.Z.Z.Z.Z.Z.Z.Z.Z.Z.Z.",
"Z.Z.Z.Z.Z.Z.Z.Z.Z.Z.Z.h h h ) Q U 2 &       X i h h h Z.Z.Z.Z.Z.Z.Z.Z.Z.Z.Z.Z.Z.",
"Z.Z.Z.Z.Z.Z.Z.Z.Z.Z.Z.Z.h h c L < #       8 g h h h Z.Z.Z.Z.Z.Z.Z.Z.Z.Z.Z.Z.Z.Z.",
"Z.Z.Z.Z.Z.Z.Z.Z.Z.Z.Z.Z.h h h 9 :   o 8 i h h h h Z.Z.Z.Z.Z.Z.Z.Z.Z.Z.Z.Z.Z.Z.Z.",
"Z.Z.Z.Z.Z.Z.Z.Z.Z.Z.Z.Z.h h h h h g h h h h h h Z.Z.Z.Z.Z.Z.Z.Z.Z.Z.Z.Z.Z.Z.Z.Z.",
"Z.Z.Z.Z.Z.Z.Z.Z.Z.Z.Z.Z.Z.h h h h h h h h h Z.Z.Z.Z.Z.Z.Z.Z.Z.Z.Z.Z.Z.Z.Z.Z.Z.Z.",
"Z.Z.Z.Z.Z.Z.Z.Z.Z.Z.Z.Z.Z.Z.Z.h h h h h Z.Z.Z.Z.Z.Z.Z.Z.Z.Z.Z.Z.Z.Z.Z.Z.Z.Z.Z.Z.",
"Z.Z.Z.Z.Z.Z.Z.Z.Z.Z.Z.Z.Z.Z.Z.Z.Z.Z.Z.Z.Z.Z.Z.Z.Z.Z.Z.Z.Z.Z.Z.Z.Z.Z.Z.Z.Z.Z.Z.Z.",
"Z.Z.Z.Z.Z.Z.Z.Z.Z.Z.Z.Z.Z.Z.Z.Z.Z.Z.Z.Z.Z.Z.Z.Z.Z.Z.Z.Z.Z.Z.Z.Z.Z.Z.Z.Z.Z.Z.Z.Z.",
"Z.Z.Z.Z.Z.Z.Z.Z.Z.Z.Z.Z.Z.Z.Z.Z.Z.Z.Z.Z.Z.Z.Z.Z.Z.Z.Z.Z.Z.Z.Z.Z.Z.Z.Z.Z.Z.Z.Z.Z.",
"Z.Z.Z.Z.Z.Z.Z.Z.Z.Z.Z.Z.Z.Z.Z.Z.Z.Z.Z.Z.Z.Z.Z.Z.Z.Z.Z.Z.Z.Z.Z.Z.Z.Z.Z.Z.Z.Z.Z.Z.",
"Z.Z.Z.Z.Z.Z.Z.Z.Z.Z.Z.Z.Z.Z.Z.Z.Z.Z.Z.Z.Z.Z.Z.Z.Z.Z.Z.Z.Z.Z.Z.Z.Z.Z.Z.Z.Z.Z.Z.Z.",
"Z.Z.Z.Z.Z.Z.Z.Z.Z.Z.Z.Z.Z.Z.Z.Z.Z.Z.Z.Z.Z.Z.Z.Z.Z.Z.Z.Z.Z.Z.Z.Z.Z.Z.Z.Z.Z.Z.Z.Z.",
"Z.Z.Z.Z.Z.Z.Z.Z.Z.Z.Z.Z.Z.Z.Z.Z.Z.Z.Z.Z.Z.Z.Z.Z.Z.Z.Z.Z.Z.Z.Z.Z.Z.Z.Z.Z.Z.Z.Z.Z.",
"Z.Z.Z.Z.Z.Z.Z.Z.Z.Z.Z.Z.Z.Z.Z.Z.Z.Z.Z.Z.Z.Z.Z.Z.Z.Z.Z.Z.Z.Z.Z.Z.Z.Z.Z.Z.Z.Z.Z.Z."
};
