/* XPM */
static char *_480183230230[] = {
/* columns rows colors chars-per-pixel */
"40 60 163 2 ",
"   c #23053B",
".  c #3B203A",
"X  c #4D3536",
"o  c #5E4734",
"O  c #6C562F",
"+  c #7D6436",
"@  c #270641",
"#  c #290745",
"$  c #2C074A",
"%  c #2D084C",
"&  c #2F0850",
"*  c #320953",
"=  c #350A5B",
"-  c #3C0D66",
";  c #3F0E6A",
":  c #4A2259",
">  c #400E6D",
",  c #430F72",
"<  c #461076",
"1  c #471079",
"2  c #4A117D",
"3  c #67484D",
"4  c #66474A",
"5  c #694852",
"6  c #6A4858",
"7  c #75564B",
"8  c #7D5861",
"9  c #794A79",
"0  c #937C23",
"q  c #957C2E",
"w  c #987C35",
"e  c #977C32",
"r  c #90724B",
"t  c #967259",
"y  c #A37E5E",
"u  c #82586F",
"i  c #9A7268",
"p  c #A97E6E",
"a  c #B59E0C",
"s  c #A0881C",
"d  c #AB9317",
"f  c #B69E11",
"g  c #A08821",
"h  c #B09335",
"j  c #CAB100",
"k  c #D3BB00",
"l  c #C2A81A",
"z  c #DABA37",
"x  c #DDC400",
"c  c #E6CC00",
"v  c #E0C40E",
"b  c #E3C618",
"n  c #E4C81A",
"m  c #E1C517",
"M  c #E2C43D",
"N  c #A78842",
"B  c #CAA849",
"V  c #D7B251",
"C  c #D8B452",
"Z  c #DDB953",
"A  c #CB9F73",
"S  c #D1A863",
"D  c #CFA376",
"F  c #D2A676",
"G  c #D4A977",
"H  c #D6AD78",
"J  c #DBB679",
"K  c #4E1283",
"L  c #501387",
"P  c #53158D",
"I  c #561691",
"U  c #5B179B",
"Y  c #5D189E",
"T  c #591695",
"R  c #7A3C99",
"E  c #5F18A1",
"W  c #6119A5",
"Q  c #651BAC",
"!  c #6A1CB3",
"~  c #6E1EBA",
"^  c #711FBF",
"/  c #722BA5",
"(  c #731FC2",
")  c #7420C5",
"_  c #7720C8",
"`  c #7921CC",
"'  c #7D22D3",
"]  c #9E6791",
"[  c #A3679F",
"{  c #914DAD",
"}  c #9A5CA6",
"|  c #974EBB",
" . c #A15CB5",
".. c #B370B1",
"X. c #8931CF",
"o. c #8225DD",
"O. c #8E33D8",
"+. c #9133DD",
"@. c #8626E2",
"#. c #8827E7",
"$. c #8A27E9",
"%. c #8D29ED",
"&. c #922DEE",
"*. c #9632EF",
"=. c #9A34EF",
"-. c #9C3DE5",
";. c #9B37F0",
":. c #9E3BF0",
">. c #A03FF1",
",. c #A855D6",
"<. c #B973C6",
"1. c #AF61D1",
"2. c #B265D1",
"3. c #B365DE",
"4. c #BB73D4",
"5. c #BD78D4",
"6. c #B56CC6",
"7. c #A448E6",
"8. c #A343F1",
"9. c #A74AF2",
"0. c #A94EF2",
"q. c #AD54F3",
"w. c #AF59F4",
"e. c #B15DF4",
"r. c #B86BEA",
"t. c #BB73EA",
"y. c #B564F4",
"u. c #B769F4",
"i. c #B96DF4",
"p. c #BD73F5",
"a. c #BF78F6",
"s. c #C27EEC",
"d. c #C17CF6",
"f. c #BF84A0",
"g. c #CC9B85",
"h. c #CD9B95",
"j. c #C89494",
"k. c #D2A487",
"l. c #D9AE97",
"z. c #DCB599",
"x. c #C78EA2",
"c. c #C488AF",
"v. c #C991A3",
"b. c #CE9BA3",
"n. c #C790A2",
"m. c #D09EA4",
"M. c #CF9BB1",
"N. c #C485BD",
"B. c #D4A4B7",
"V. c #D9AFA6",
"C. c #C687C9",
"Z. c #C689C9",
"A. c #C282D4",
"S. c #C88BD6",
"D. c #CD97D7",
"F. c #C88BE5",
"G. c #C585F7",
"H. c #C98CF7",
"J. c #CA8FF8",
"K. c #C788F7",
"L. c #CC91F8",
"P. c #CE98E2",
"I. c None",
/* pixels */
"I.I.I.I.I.I.I.I.I.I.I.I.I.I.I.I.I.I.I.I.I.I.I.I.I.I.I.I.I.I.I.I.I.I.I.I.I.I.I.I.",
"I.I.I.I.I.I.I.I.I.I.I.I.I.I.I.I.I.I.I.I.I.I.I.I.I.I.I.I.I.I.I.I.I.I.I.I.I.I.I.I.",
"I.I.I.I.I.I.I.I.I.I.I.I.I.I.I.I.I.I.I.I.I.I.I.I.I.I.I.I.I.I.I.I.I.I.I.I.I.I.I.I.",
"I.I.I.I.I.I.I.I.I.I.I.I.I.I.I.I.I.I.I.I.I.I.I.I.I.I.I.I.I.I.I.I.I.I.I.I.I.I.I.I.",
"I.I.I.I.I.I.I.c c c c c c c c c c c c c c c c c c c c c c c c c c c I.I.I.I.I.I.",
"I.I.I.I.c c c c c c c c c c c c c c c c c c c c c c c c c c c c c c c c I.I.I.I.",
"I.I.I.c c c c c c c c c c n b b n n n n J J J J J J J J J M n n c c c c c I.I.I.",
"I.I.c c c M z.V.B.S.S.S.F.d.d.d.d.d.d.d.d.d.d.d.d.G.G.J.L.J.G.p.4.j.b c c I.I.I.",
"I.I.c c c D.L.K.p.y.e.e.e.y.y.y.e.y.y.y.y.e.e.y.y.i.p.d.d.K.d.y.9.&.[ c c c I.I.",
"I.I.c c c F.G.i.w.2.2.2.<.x.x.x.v.v.x.v.j.G G G k.h.b.m.M.s.u.0.&.' / c c c I.I.",
"I.I.c c b p.i.e.g.c c c c c c c c c c c c c b b n b b b M A.e.;.o.W L x c c I.I.",
"I.I.c c b u.y.4.c c b v.m.m.m.C.A.A.A.5.t.t.u.u.u.u.i.u.y.q.:.o.W 1 5 c c c I.I.",
"I.I.c c b y.y.4.c H r.u.i.i.u.u.y.y.y.e.e.e.e.e.e.e.e.q.0.>.$.Q < * o c c c I.I.",
"I.I.c c b e.u.u.r.u.u.i.i.i.u.y.e.e.e.e.w.e.w.q.q.0.8.>.;.$.~ 2 *   0 c c c I.I.",
"I.I.c c b e.u.i.i.u.y.u.u.e.w.9.8.8.:.:.;.=.*.&.&.%.$.o.( W , $     d c c I.I.I.",
"I.I.c c b e.y.u.u.e.q.0.8.;.&.o.` ^ ! ! Q W E U T P L 2 , *       X c c c I.I.I.",
"I.I.c c b e.e.e.q.8.=.*.$._ Q I 2 < - - - = = * % # @           . j c c c I.I.I.",
"I.I.c c b q.q.0.8.*.$.o.) W K ; = * & & & % #               . O j c c c I.I.I.I.",
"I.I.c c G q.0.9.:.&.#.' ~ U 1 5 3 4 4 3 5 7 w w q g a a j x c c c c c I.I.I.I.I.",
"I.I.c c G q.q.9.:.&.#.` ~ U K x c c c c c c c c c c c c c c c c c c I.I.I.I.I.I.",
"I.I.c c G q.0.8.;.&.#.' ) Q E v c c c c c c c c c c c c c c c c I.I.I.I.I.I.I.I.",
"I.I.c c G 0.0.8.;.&.#.o.' _ { x S D j.x.x.x.x.h.G Z c c c c c c c I.I.I.I.I.I.I.",
"I.I.c c G 0.9.8.:.&.#.@.@.@.+.%.:.8.0.w.e.y.u.i.p.p.t.C.l.z c c c c I.I.I.I.I.I.",
"I.I.c c F 0.9.8.;.&.$.$.$.%.%.*.:.8.9.q.w.e.u.i.a.d.d.i.y.q.c.m c c c I.I.I.I.I.",
"I.I.c c F 9.9.8.;.&.%.%.%.&.%.*...F G G G H k.m.A.a.p.i.u.q.8.,.V c c c I.I.I.I.",
"I.I.c c F 8.8.:.*.$.o.o.o.@.#.%.*.,.6.x.v.b.H k.H C.u.e.q.9.;.&.O.z c c I.I.I.I.",
"I.I.c c D :.;.%.@.) ! Q Q Q Q ! ^ ` @.%.;.8.0.q.q.q.0.9.9.:.*.%.' } c c c I.I.I.",
"I.I.c c z %.@.` Q I 2 < ; ; ; < 2 I E ) @.&.;.:.8.:.:.;.*.*.%.' ( Q B c c I.I.I.",
"I.I.c c b @._ Q P ; * % #     # & ; K E ( ' &.*.*.*.&.&.&.%.#.( ! U y c c c I.I.",
"I.I.c c c X.( W K = #               = 1 E ( ' %.&.&.&.%.%.%.' ( E L 8 c c c I.I.",
"I.I.c c c  .) R 9 r e f a j x x x x l N 8 E Q ( ' ' #.$.%.$.' ~ I < 6 c c c I.I.",
"I.I.I.c c b b c c c c c c c c c c c c c x z R ! ( ' @.%.%.%.( Q K - 4 c c c I.I.",
"I.I.I.c c c c Z n.D c c c c c c c c c c c B ! ] [ @.$.%.&.#.( Y 1 * + c c c I.I.",
"I.I.c c c c B.K.a.e.<.F c c c c c c c c V O.| c A &.&.&.&.@.^ I ; $ 0 c c c I.I.",
"I.I.c c c B.L.L.K.i.w.q.3.c.G b b b C x.7.7.V c g.>.>.;.&.o.Q 2 =   a c c I.I.I.",
"I.I.c c J H.L.J.G.i.e.q.q.q.q.w.e.e.e.q.4.Z c c N.q.9.>.&.` Y > #   k c c I.I.I.",
"I.c c c M.d.G.d.p.e.q.8.8.8.:.>.8.8.2.h.b c c J p.u.q.:.$.~ L *   O c c c I.I.I.",
"I.c c c 4.y.y.e.0.:.;.;.=.-...f.g.C c c c c l.H.d.u.0.=.' Y -     d c c I.I.I.I.",
"I.c c c 2.8.8.8.;.&.%.%.&.&...Z b b b Z l.P.H.G.d.e.8.%.! 1 #   X c c c I.I.I.I.",
"I.c c c f.*.&.&.&.%.%.$.%.%.&.;.8.q.u.d.K.K.G.a.e.8.&.) P &     d c c c I.I.I.I.",
"I.I.c c S @.$.' #.#.#.$.%.%.&.;.8.q.u.i.p.p.i.e.8.&.) I =     O c c c I.I.I.I.I.",
"I.I.c c c | ` ` ' o.@.$.%.&.*.:.9.w.e.y.u.e.0.;.$.) I =     . k c c c I.I.I.I.I.",
"I.I.I.c c B ) ( ~ ) ' @.$.&.*.:.8.9.9.9.>.;.&.' ! K *     . j c c c I.I.I.I.I.I.",
"I.I.I.c c c N Y E E ! ~ ' o.$.%.%.%.%.#.o._ ! I > @     . j c c c I.I.I.I.I.I.I.",
"I.I.I.I.c c c i K K P I E Q ! ~ ~ ~ ! Q U K > &       . j c c c I.I.I.I.I.I.I.I.",
"I.I.I.I.c c c c t < < < < 2 K K K 2 1 , = %         O k c c c I.I.I.I.I.I.I.I.I.",
"I.I.I.I.I.c c c c h : = = * * * * % #           X s c c c c I.I.I.I.I.I.I.I.I.I.",
"I.I.I.I.I.I.c c c c x q .                   O s c c c c c I.I.I.I.I.I.I.I.I.I.I.",
"I.I.I.I.I.I.I.c c c c c c a 0 0 o o 0 0 d k c c c c c c I.I.I.I.I.I.I.I.I.I.I.I.",
"I.I.I.I.I.I.I.I.I.c c c c c c c c c c c c c c c c c I.I.I.I.I.I.I.I.I.I.I.I.I.I.",
"I.I.I.I.I.I.I.I.I.I.I.c c c c c c c c c c c c I.I.I.I.I.I.I.I.I.I.I.I.I.I.I.I.I.",
"I.I.I.I.I.I.I.I.I.I.I.I.I.I.c c c c c c I.I.I.I.I.I.I.I.I.I.I.I.I.I.I.I.I.I.I.I.",
"I.I.I.I.I.I.I.I.I.I.I.I.I.I.I.I.I.I.I.I.I.I.I.I.I.I.I.I.I.I.I.I.I.I.I.I.I.I.I.I.",
"I.I.I.I.I.I.I.I.I.I.I.I.I.I.I.I.I.I.I.I.I.I.I.I.I.I.I.I.I.I.I.I.I.I.I.I.I.I.I.I.",
"I.I.I.I.I.I.I.I.I.I.I.I.I.I.I.I.I.I.I.I.I.I.I.I.I.I.I.I.I.I.I.I.I.I.I.I.I.I.I.I.",
"I.I.I.I.I.I.I.I.I.I.I.I.I.I.I.I.I.I.I.I.I.I.I.I.I.I.I.I.I.I.I.I.I.I.I.I.I.I.I.I.",
"I.I.I.I.I.I.I.I.I.I.I.I.I.I.I.I.I.I.I.I.I.I.I.I.I.I.I.I.I.I.I.I.I.I.I.I.I.I.I.I.",
"I.I.I.I.I.I.I.I.I.I.I.I.I.I.I.I.I.I.I.I.I.I.I.I.I.I.I.I.I.I.I.I.I.I.I.I.I.I.I.I.",
"I.I.I.I.I.I.I.I.I.I.I.I.I.I.I.I.I.I.I.I.I.I.I.I.I.I.I.I.I.I.I.I.I.I.I.I.I.I.I.I.",
"I.I.I.I.I.I.I.I.I.I.I.I.I.I.I.I.I.I.I.I.I.I.I.I.I.I.I.I.I.I.I.I.I.I.I.I.I.I.I.I."
};
