/* XPM */
static char *_480183225698[] = {
/* columns rows colors chars-per-pixel */
"40 60 165 2 ",
"   c #23053B",
".  c #3B203A",
"X  c #4D3536",
"o  c #5D4732",
"O  c #6C562F",
"+  c #7F643E",
"@  c #7A642C",
"#  c #270641",
"$  c #290745",
"%  c #2E084D",
"&  c #2C074A",
"*  c #2F0850",
"=  c #310952",
"-  c #360A5C",
";  c #3B0C65",
":  c #3F0E6B",
">  c #400E6D",
",  c #430F72",
"<  c #461076",
"1  c #4A117D",
"2  c #502466",
"3  c #654849",
"4  c #725057",
"5  c #784A78",
"6  c #937C24",
"7  c #947C28",
"8  c #997C37",
"9  c #8F7246",
"0  c #9D7E49",
"q  c #8C6666",
"w  c #A0881C",
"e  c #B79E1F",
"r  c #AB9317",
"t  c #A48833",
"y  c #BC9E39",
"u  c #AE932A",
"i  c #C0A802",
"p  c #CAB100",
"a  c #D4BB00",
"s  c #D7BB1B",
"d  c #CFB22D",
"f  c #D0B231",
"g  c #C6A836",
"h  c #DEC400",
"j  c #E6CC00",
"k  c #E0C402",
"l  c #E3C619",
"z  c #E4C91A",
"x  c #E1C414",
"c  c #E0C13C",
"v  c #AA894A",
"b  c #A88846",
"n  c #AE8A59",
"m  c #B6944F",
"M  c #B28A68",
"N  c #CFA85E",
"B  c #D9B552",
"V  c #DDBA53",
"C  c #C99F6E",
"Z  c #DBB667",
"A  c #DDB868",
"S  c #CEA175",
"D  c #D6AD78",
"F  c #D3A877",
"G  c #D9B279",
"H  c #D4AB65",
"J  c #E1C154",
"K  c #4D1283",
"L  c #501387",
"P  c #52148B",
"I  c #561691",
"U  c #581695",
"Y  c #5B179B",
"T  c #5D189E",
"R  c #6F3B84",
"E  c #753B90",
"W  c #5F18A1",
"Q  c #6119A4",
"!  c #651BAB",
"~  c #6A1CB4",
"^  c #6E1EBB",
"/  c #711FBF",
"(  c #7C2EB7",
")  c #762CAD",
"_  c #731FC2",
"`  c #7520C6",
"'  c #7721C9",
"]  c #7A22CE",
"[  c #7D22D3",
"{  c #9A6787",
"}  c #B17F85",
"|  c #975BA0",
" . c #8C4CA3",
".. c #B374A7",
"X. c #B672B9",
"o. c #C07FBC",
"O. c #8630C9",
"+. c #8225DC",
"@. c #8626E2",
"#. c #8827E7",
"$. c #8A27E9",
"%. c #8D29ED",
"&. c #922DEE",
"*. c #9631EF",
"=. c #9934EF",
"-. c #9B36F0",
";. c #9E3BF0",
":. c #A03FF1",
">. c #AB59D8",
",. c #A656CF",
"<. c #BE7AC8",
"1. c #B265D1",
"2. c #B66CD2",
"3. c #B86FD3",
"4. c #BB74D4",
"5. c #BE79D4",
"6. c #9E40E5",
"7. c #B15EE8",
"8. c #A444F1",
"9. c #A74BF2",
"0. c #A94EF2",
"q. c #AC53F3",
"w. c #AF59F4",
"e. c #B15DF3",
"r. c #B86BEA",
"t. c #BD75E7",
"y. c #B564F4",
"u. c #B769F4",
"i. c #B96CF4",
"p. c #BD73F5",
"a. c #BF78F6",
"s. c #C07FD4",
"d. c #C07CE0",
"f. c #C17CF6",
"g. c #BC8B86",
"h. c #CF9F86",
"j. c #C28D92",
"k. c #C69093",
"l. c #CE9D96",
"z. c #D09F96",
"x. c #D4A788",
"c. c #D3A396",
"v. c #D6AA97",
"b. c #DAB098",
"n. c #DBB489",
"m. c #C48AA6",
"M. c #CD99A3",
"N. c #CB95A3",
"B. c #D09FA4",
"V. c #C68AB7",
"C. c #CA92B1",
"Z. c #CD98B1",
"A. c #D19DBF",
"S. c #D5A6A5",
"D. c #D4A4B7",
"F. c #C485C9",
"G. c #C484D5",
"H. c #CD96D7",
"J. c #CE98D7",
"K. c #CB92CB",
"L. c #C78AE7",
"P. c #CC93E1",
"I. c #C585F7",
"U. c #C889F7",
"Y. c None",
/* pixels */
"Y.Y.Y.Y.Y.Y.Y.Y.Y.Y.Y.Y.Y.Y.Y.Y.Y.Y.Y.Y.Y.Y.Y.Y.Y.Y.Y.Y.Y.Y.Y.Y.Y.Y.Y.Y.Y.Y.Y.Y.",
"Y.Y.Y.Y.Y.Y.Y.Y.Y.Y.Y.Y.Y.Y.Y.Y.Y.Y.Y.Y.Y.Y.Y.Y.Y.Y.Y.Y.Y.Y.Y.Y.Y.Y.Y.Y.Y.Y.Y.Y.",
"Y.Y.Y.Y.Y.Y.Y.Y.Y.Y.Y.Y.Y.Y.Y.Y.Y.Y.Y.Y.Y.Y.Y.Y.Y.Y.Y.Y.Y.Y.Y.Y.Y.Y.Y.Y.Y.Y.Y.Y.",
"Y.Y.Y.Y.Y.Y.Y.Y.Y.Y.Y.Y.Y.Y.Y.Y.Y.Y.Y.Y.Y.Y.Y.Y.Y.Y.Y.Y.Y.Y.Y.Y.Y.Y.Y.Y.Y.Y.Y.Y.",
"Y.Y.Y.Y.Y.Y.Y.Y.Y.Y.Y.Y.Y.Y.Y.Y.Y.Y.Y.Y.Y.Y.Y.Y.Y.Y.Y.Y.Y.Y.Y.Y.Y.Y.Y.Y.Y.Y.Y.Y.",
"Y.Y.Y.Y.Y.Y.Y.Y.Y.Y.Y.Y.Y.Y.Y.Y.Y.j j j j j j j j Y.Y.Y.Y.Y.Y.Y.Y.Y.Y.Y.Y.Y.Y.Y.",
"Y.Y.Y.Y.Y.Y.Y.Y.Y.Y.Y.Y.Y.Y.j j j j j j j j j j j j j j j Y.Y.Y.Y.Y.Y.Y.Y.Y.Y.Y.",
"Y.Y.Y.Y.Y.Y.Y.Y.Y.Y.Y.Y.j j j j j j j j z z j j j j j j j j j Y.Y.Y.Y.Y.Y.Y.Y.Y.",
"Y.Y.Y.Y.Y.Y.Y.Y.Y.Y.j j j j j j n.D.J.L.U.U.P.J.D.b.Z j j j j j j Y.Y.Y.Y.Y.Y.Y.",
"Y.Y.Y.Y.Y.Y.Y.Y.Y.j j j j z S.L.f.f.p.p.f.f.I.I.I.I.a.r.X.V j j j Y.Y.Y.Y.Y.Y.Y.",
"Y.Y.Y.Y.Y.Y.Y.Y.j j j j b.L.a.i.e.w.3.4.5.s.p.a.f.f.i.w.8.*.C j j Y.Y.Y.Y.Y.Y.Y.",
"Y.Y.Y.Y.Y.Y.Y.j j j z D.f.i.w.<.h.l j j j j z x.G.p.y.8.*.+.| j j j Y.Y.Y.Y.Y.Y.",
"Y.Y.Y.Y.Y.Y.j j j J H.a.y.3.F j j j c G B.Z.G.G.5.e.0.=.@._ Q s j j Y.Y.Y.Y.Y.Y.",
"Y.Y.Y.Y.Y.j j j z L.a.y.V.j j l c.G.p.p.i.y.e.w.0.8.-.$._ Q K y j j Y.Y.Y.Y.Y.Y.",
"Y.Y.Y.Y.Y.j j j A.a.y.N.j j c.t.p.i.y.w.q.9.8.;.-.*.%.] Q L : y j j Y.Y.Y.Y.Y.Y.",
"Y.Y.Y.Y.Y.j j G f.i.<.j j C.i.p.y.0.:.*.%.$.$.$.@.@.[ ~ P > * e j j Y.Y.Y.Y.Y.Y.",
"Y.Y.Y.Y.j j j K.i.w.V j C.p.i.e.:.$._ Q Y U Y Y W Q T K ; %   i j j Y.Y.Y.Y.Y.Y.",
"Y.Y.Y.Y.j j V a.u.V.j l.y.y.q.&.^ 1 - % % = ; , 1 K < - $     h j j Y.Y.Y.Y.Y.Y.",
"Y.Y.Y.j j j c.p.y.x.z r.w.9.%.! ;   X 6 7 8 4 , 1 1 : *     o j j j Y.Y.Y.Y.Y.Y.",
"Y.Y.Y.j j j G.u.e.z M.w.9.*.^ < % w j j j j j d n 5 , =     w j j j Y.Y.Y.Y.Y.Y.",
"Y.Y.Y.j j l i.u.5.j 4.q.-.@.W : t j j j j j j j j j f v 8 t j j j Y.Y.Y.Y.Y.Y.Y.",
"Y.Y.Y.j j A i.u.F.B w.8.=.[ W q j j j j j j l l l l j j j j j j j Y.Y.Y.Y.Y.Y.Y.",
"Y.Y.Y.j j x.i.u.M.l.q.;.*.[ ( k j j B l.F.L.f.f.a.u.4.j.l j j j j Y.Y.Y.Y.Y.Y.Y.",
"Y.Y.j j j M.u.u.M.C.9.;.=.$...j j.1.w.i.a.f.f.f.f.p.e.8.;.g.j j j j Y.Y.Y.Y.Y.Y.",
"Y.Y.j j j M.u.u.M.4.9.;.-.*.X.6.8.0.w.5.M.G z v.f.a.y.q.;.&...j j j j Y.Y.Y.Y.Y.",
"Y.Y.j j j 5.u.y.C.7.8.;.-.-.-.;.8.9.V j j l A v.a.i.y.q.8.=.%...j j j Y.Y.Y.Y.Y.",
"Y.Y.j j j 4.y.y.w.0.;.-.-.=.&.*.-.;.>.2.5.y.u.u.y.w.0.8.;.&.%.@.g.j j j Y.Y.Y.Y.",
"Y.Y.j j j 4.w.w.q.8.-.*.&.%.@.[ ] [ [ %.=.8.9.9.8.;.=.=.*.%.@.[ ( k j j Y.Y.Y.Y.",
"Y.Y.j j j 3.w.q.9.;.*.%.@.] ^ T L L U ~ +.&.;.8.;.-.*.&.%.%.+.` ~ M j j j Y.Y.Y.",
"Y.Y.j j j 2.0.9.8.-.%.#.[ ~ P ; * * ; P ~ @.&.-.-.*.&.%.%.$.[ ` ! E j j j Y.Y.Y.",
"Y.Y.j j j 2.9.8.;.=.%.+._ Y ; $ . 6 7 9 R ^ [ %.&.%.%.%.%.$.[ ^ Q I g j j Y.Y.Y.",
"Y.Y.j j j 1.9.8.;.*.%.+.^ I ; . a j j j h  .[ @.%.%.$.$.%.$.[ ^ T P v j j Y.Y.Y.",
"Y.Y.j j j 1.8.8.-.=.%.[ _ U , t j j j j j N #.#.%.%.#.$.%.$.[ ~ Y K 0 j j j Y.Y.",
"Y.Y.j j j X.;.8.-.*.%.[ ` ! L m j j j j j B &.%.%.$.%.%.%.$.[ ~ I , 4 j j j Y.Y.",
"Y.Y.j j j m.;.;.-.*.%.@.[ ` ~ { j j j j j m.=.&.&.%.%.%.%.%.] ! L > 3 j j j Y.Y.",
"Y.Y.Y.j j k.-.-.=.=.%.@.+.[ [ +.j.j j j S.y.9.H ,.&.&.&.&.#._ Q 1 - 3 j j j Y.Y.",
"Y.Y.Y.j j S =.=.*.&.%.$.#.%.%.&.;.2.5.t.a.u.l.j 1.;.-.&.&.@._ U > * 7 j j j Y.Y.",
"Y.Y.Y.j j l &.&.&.&.&.%.%.%.&.*.;.8.0.w.F.D j F q.8.;.*.%.[ ! K -   w j j Y.Y.Y.",
"Y.Y.Y.j j j ,.%.%.%.%.%.%.&.*.=.;.;.>.B k j D t.e.0.:.*.#._ U ;     i j j Y.Y.Y.",
"Y.Y.Y.Y.j j g.+.@.%.%.%.%.%.%.&.*.;.8.2.4.G.p.i.e.0.;.%.[ Q , #   X j j j Y.Y.Y.",
"Y.Y.Y.Y.j j x O.[ @.@.#.%.%.%.%.&.=.*.8.9.w.y.w.q.;.&.[ ! < $     w j j j Y.Y.Y.",
"Y.Y.Y.Y.j j j } ` ` [ [ [ $.%.%.%.%.*.-.8.q.q.8.-.%.' Y > #     O j j j Y.Y.Y.Y.",
"Y.Y.Y.Y.Y.j j k ) ~ ~ ^ ' [ [ #.#.%.*.*.-.-.&.%.[ ! K ;       o h j j j Y.Y.Y.Y.",
"Y.Y.Y.Y.Y.j j j m W Y Y W ! ~ _ ` ' ] [ ] _ ~ Y 1 ; #       o h j j j Y.Y.Y.Y.Y.",
"Y.Y.Y.Y.Y.Y.j j j n K 1 K K K L P I P L 1 < ; =           6 j j j j Y.Y.Y.Y.Y.Y.",
"Y.Y.Y.Y.Y.Y.j j j j b 2 ; - ; - - = = * $             @ p j j j j Y.Y.Y.Y.Y.Y.Y.",
"Y.Y.Y.Y.Y.Y.Y.j j j j a + $                     o w a k j j j j Y.Y.Y.Y.Y.Y.Y.Y.",
"Y.Y.Y.Y.Y.Y.Y.Y.j j j j j p w o o o o o o 6 r a j j j j j j Y.Y.Y.Y.Y.Y.Y.Y.Y.Y.",
"Y.Y.Y.Y.Y.Y.Y.Y.Y.Y.j j j j j j j j j j j j j j j j j j Y.Y.Y.Y.Y.Y.Y.Y.Y.Y.Y.Y.",
"Y.Y.Y.Y.Y.Y.Y.Y.Y.Y.Y.Y.j j j j j j j j j j j j j j Y.Y.Y.Y.Y.Y.Y.Y.Y.Y.Y.Y.Y.Y.",
"Y.Y.Y.Y.Y.Y.Y.Y.Y.Y.Y.Y.Y.Y.j j j j j j j j Y.Y.Y.Y.Y.Y.Y.Y.Y.Y.Y.Y.Y.Y.Y.Y.Y.Y.",
"Y.Y.Y.Y.Y.Y.Y.Y.Y.Y.Y.Y.Y.Y.Y.Y.Y.Y.Y.Y.Y.Y.Y.Y.Y.Y.Y.Y.Y.Y.Y.Y.Y.Y.Y.Y.Y.Y.Y.Y.",
"Y.Y.Y.Y.Y.Y.Y.Y.Y.Y.Y.Y.Y.Y.Y.Y.Y.Y.Y.Y.Y.Y.Y.Y.Y.Y.Y.Y.Y.Y.Y.Y.Y.Y.Y.Y.Y.Y.Y.Y.",
"Y.Y.Y.Y.Y.Y.Y.Y.Y.Y.Y.Y.Y.Y.Y.Y.Y.Y.Y.Y.Y.Y.Y.Y.Y.Y.Y.Y.Y.Y.Y.Y.Y.Y.Y.Y.Y.Y.Y.Y.",
"Y.Y.Y.Y.Y.Y.Y.Y.Y.Y.Y.Y.Y.Y.Y.Y.Y.Y.Y.Y.Y.Y.Y.Y.Y.Y.Y.Y.Y.Y.Y.Y.Y.Y.Y.Y.Y.Y.Y.Y.",
"Y.Y.Y.Y.Y.Y.Y.Y.Y.Y.Y.Y.Y.Y.Y.Y.Y.Y.Y.Y.Y.Y.Y.Y.Y.Y.Y.Y.Y.Y.Y.Y.Y.Y.Y.Y.Y.Y.Y.Y.",
"Y.Y.Y.Y.Y.Y.Y.Y.Y.Y.Y.Y.Y.Y.Y.Y.Y.Y.Y.Y.Y.Y.Y.Y.Y.Y.Y.Y.Y.Y.Y.Y.Y.Y.Y.Y.Y.Y.Y.Y.",
"Y.Y.Y.Y.Y.Y.Y.Y.Y.Y.Y.Y.Y.Y.Y.Y.Y.Y.Y.Y.Y.Y.Y.Y.Y.Y.Y.Y.Y.Y.Y.Y.Y.Y.Y.Y.Y.Y.Y.Y.",
"Y.Y.Y.Y.Y.Y.Y.Y.Y.Y.Y.Y.Y.Y.Y.Y.Y.Y.Y.Y.Y.Y.Y.Y.Y.Y.Y.Y.Y.Y.Y.Y.Y.Y.Y.Y.Y.Y.Y.Y.",
"Y.Y.Y.Y.Y.Y.Y.Y.Y.Y.Y.Y.Y.Y.Y.Y.Y.Y.Y.Y.Y.Y.Y.Y.Y.Y.Y.Y.Y.Y.Y.Y.Y.Y.Y.Y.Y.Y.Y.Y."
};
