/* XPM */
static char *_480183220987[] = {
/* columns rows colors chars-per-pixel */
"40 60 163 2 ",
"   c #23053B",
".  c #3B2039",
"X  c #4D3536",
"o  c #5D4732",
"O  c #7A642C",
"+  c #260641",
"@  c #290745",
"#  c #2B0749",
"$  c #2F0850",
"%  c #320954",
"&  c #350A5A",
"*  c #380B5F",
"=  c #3B0C64",
"-  c #3E0E6A",
";  c #400E6C",
":  c #430F72",
">  c #471079",
",  c #4A117D",
"<  c #451075",
"1  c #715054",
"2  c #714869",
"3  c #7A4A7B",
"4  c #877027",
"5  c #89702F",
"6  c #997C38",
"7  c #806444",
"8  c #9C7E46",
"9  c #A07E55",
"0  c #A97E6E",
"q  c #B59E0C",
"w  c #A0881C",
"e  c #AB9317",
"r  c #AB931B",
"t  c #B79E1A",
"y  c #BA9E2C",
"u  c #B89E22",
"i  c #BB9E32",
"p  c #BD9E3C",
"a  c #C0A800",
"s  c #CAB100",
"d  c #D4BB00",
"f  c #CDB220",
"g  c #D5B72D",
"h  c #C6A835",
"j  c #DEC400",
"k  c #E6CC00",
"l  c #E3C618",
"z  c #E4C81A",
"x  c #E2C517",
"c  c #E2C33D",
"v  c #AE8C4C",
"b  c #BE9569",
"n  c #C09E4B",
"m  c #C19E51",
"M  c #D4B244",
"N  c #DBB753",
"B  c #C29579",
"V  c #D3AA65",
"C  c #DAB467",
"Z  c #DDBA68",
"A  c #CEA275",
"S  c #D4A977",
"D  c #D6AD78",
"F  c #DBB579",
"G  c #DEB979",
"H  c #4E1283",
"J  c #501387",
"K  c #53158C",
"L  c #561691",
"P  c #581695",
"I  c #5B179B",
"U  c #5D189E",
"Y  c #5E18A0",
"T  c #6119A5",
"R  c #651BAC",
"E  c #6A1CB3",
"W  c #6E1EBB",
"Q  c #711FBF",
"!  c #721FC1",
"~  c #7520C6",
"^  c #7721C9",
"/  c #7921CC",
"(  c #7E23D4",
")  c #9D6790",
"_  c #996684",
"`  c #B47F8F",
"'  c #A3679F",
"]  c #AA7491",
"[  c #AF749F",
"{  c #924DAE",
"}  c #934DB2",
"|  c #B779AB",
" . c #AC69B3",
".. c #8225DC",
"X. c #8626E2",
"o. c #8827E6",
"O. c #8A27E9",
"+. c #8C28ED",
"@. c #922DEE",
"#. c #9632EF",
"$. c #9934EF",
"%. c #9B36F0",
"&. c #9E3BF0",
"*. c #A03FF1",
"=. c #9541CD",
"-. c #9642D0",
";. c #A453CF",
":. c #A75DC2",
">. c #A149DA",
",. c #AA58D8",
"<. c #AB61C4",
"1. c #BF7AC7",
"2. c #B265D1",
"3. c #B76ED3",
"4. c #B669DF",
"5. c #BB75D3",
"6. c #B15EE8",
"7. c #A344F1",
"8. c #A74AF2",
"9. c #A94DF2",
"0. c #AC54F3",
"q. c #AF59F4",
"w. c #B15DF4",
"e. c #AB53E7",
"r. c #BD76E3",
"t. c #B564F4",
"y. c #B769F4",
"u. c #B96DF4",
"i. c #BD74F5",
"p. c #BF78F6",
"a. c #B463E9",
"s. c #C17BF6",
"d. c #BA819C",
"f. c #BF8B90",
"g. c #CB9A85",
"h. c #CD9B95",
"j. c #C89494",
"k. c #D1A387",
"l. c #DAB189",
"z. c #D3A397",
"x. c #D7AB97",
"c. c #D8AD97",
"v. c #DBB498",
"b. c #C78EA2",
"n. c #C287A8",
"m. c #CE9BA3",
"M. c #CA94A4",
"N. c #D09EA4",
"B. c #C586BD",
"V. c #CD97BA",
"C. c #D29FBF",
"Z. c #D2A2A5",
"A. c #D6A9A5",
"S. c #C281D4",
"D. c #C689D5",
"F. c #C98FD6",
"G. c #C789E7",
"H. c #CB92EE",
"J. c #C584F7",
"K. c #C88AF7",
"L. c #C88BF8",
"P. c #CD95F8",
"I. c None",
/* pixels */
"I.I.I.I.I.I.I.I.I.I.I.I.I.I.I.I.I.I.I.I.I.I.I.I.I.I.I.I.I.I.I.I.I.I.I.I.I.I.I.I.",
"I.I.I.I.I.I.I.I.I.I.I.I.I.I.I.I.I.I.I.I.I.I.I.I.I.I.I.I.I.I.I.I.I.I.I.I.I.I.I.I.",
"I.I.I.I.I.I.I.I.I.I.I.I.I.I.I.I.I.I.I.I.I.I.I.I.I.I.I.I.I.I.I.I.I.I.I.I.I.I.I.I.",
"I.I.I.I.I.I.I.I.I.I.I.I.I.I.I.I.I.I.I.I.I.I.I.I.k k k I.I.I.I.I.I.I.I.I.I.I.I.I.",
"I.I.I.I.I.I.I.I.k k k k k k k k k k k k k k k k k k k k k k k k k k k I.I.I.I.I.",
"I.I.I.k k k k k k k k k k k k k k k k k k k k k k k k k k k k k k k k k k I.I.I.",
"I.k k k k k k k k k k k k k z z z Z F F F F F F A.A.A.l.G G G c l k k k k k k I.",
"I.k k k c G F l.Z.Z.C.F.F.G.s.s.s.s.s.s.i.s.s.s.s.s.s.J.K.L.L.L.J.S.M.N k k k I.",
"k k k v.P.K.s.u.t.y.y.y.y.t.t.t.w.w.w.w.w.w.w.t.t.t.t.u.i.s.J.J.i.t.7.@.[ k k k ",
"k k z H.J.i.w.8.7.,.3.5.3.b.b.b.b.h.S S S S S S S S D D m.N.D.p.y.9.@.( E j k k ",
"k k c.J.i.a.j.l l k k k k k k k k k k k l x l z c C D D C N F t.0.#.( T H j k k ",
"k k Z.i.u.h.k k k C F D z.m.m.V.S.S.S.r.u.y.y.y.t.t.t.t.t.t.w.9.$.( T < 1 k k k ",
"k k S.u.t.D k k.r.u.i.i.u.y.y.y.t.t.t.t.t.w.w.w.w.q.q.0.0.0.7.%.X.R , $ 5 k k k ",
"k k 5.t.y.M.B.t.u.u.i.u.y.y.t.t.t.t.t.t.t.w.w.w.w.q.0.0.9.8.7.@./ P = @ r k k I.",
"k k 5.t.y.y.y.y.u.i.u.t.t.t.w.w.w.w.q.q.0.0.0.9.9.8.8.7.7.*.%.O.E H %   d k k I.",
"k k 3.w.t.t.t.w.t.w.q.0.9.8.7.7.*.&.&.&.%.%.%.#.#.#.#.#.#.@.+./ U - @ o k k k I.",
"k k 2.8.0.0.0.8.*.&.%.#.@.@.@.@.+.@.+.+.+.+.+.+.+.+.+.+.+.O.( W H &   4 k k k I.",
"k k n.%.$.#.@.+.o.o.X.....( ( ( ....o.O.O.+.+.+.+.+.+.+.+.o./ R : #   a k k I.I.",
"k k d.O.( / Q E R R R R R R R E W ^ ( X.O.+.+.+.+.+.+.+.+.( ! L =   X k k k I.I.",
"k k B ! E I K , > , H H J K P Y R W ^ ....O.+.+.+.+.+.+.O.( E H %   w k k k I.I.",
"k k g T K : * % % * - : > , H K I R W / ..X.O.+.+.+.+.+.O.( R , &   d k k I.I.I.",
"k k k h 1 $     @ $ * = - - - - 2 3 T Q ..X.O.+.+.+.+.O.o./ R J - 7 k k k I.I.I.",
"I.k k k k j s t u y i i i y d j k v E ^ ..X.@.+.+.+.+.+.O./ E I H f k k k k I.I.",
"I.I.k k k k k k k k k k k j g n m ) ' ..#.@.#.O.+.+.+.O.o.( ^ W _ k k k k k k I.",
"I.I.I.I.k k k k k k N | ;.( ~ ^ ( | k g.%.#.@.@.+.+.+.+.+.( o.( } { ] B k k k I.",
"I.I.I.I.I.k k k k z.y.0.%.:.d.A V k k n.8.7.&.@.+.+.+.+.+.+.+.+.../ ^ Q b k k k ",
"I.I.I.I.I.k k k x.K.p.w.g.k k k k k c i.w.8.&.@.@.+.+.+.O.O.+.O...~ E I 3 k k k ",
"I.I.I.I.k k k F s.p.i.1.k k l z Z A.L.p.t.9.&.@.+.o.( ( ( ( / ~ E P , - 6 k k k ",
"I.I.I.I.k k k 5.0.8.&.#.;.2.t.i.J.L.J.i.w.7.#.@.( ( ! R Y Y L H ; % @   r k k I.",
"I.I.I.I.k k k >.o.( ~ ~ ( #.9.t.i.i.u.w.9.%.@.( ^ R L H - = % @       X k k k I.",
"I.I.I.I.k k k ] T K J L E +.7.0.t.w.0.7.%.@.( ~ Y H * @               e k k k I.",
"I.I.I.I.I.k k k p v 8 8 0 d.;.$.&.&.%.#.+.o./ Y - #         o o o 4 s k k k I.I.",
"I.I.I.I.I.k k k k k k k k k -.O.+.+.+.O.X.^ Y : +   . d j j k k k k k k k k I.I.",
"I.I.I.I.I.I.k k k k k k k f.O.O. .O.O.../ R < @     a k k k k k k k k k I.I.I.I.",
"I.I.I.I.I.I.I.I.I.I.k k k ,.%.<.l +.O.( W , #     w k k k k k k k k I.I.I.I.I.I.",
"I.I.I.I.I.I.I.I.I.k k k h.0.7.j.A @.+./ P &     4 k k k I.I.I.I.I.I.I.I.I.I.I.I.",
"I.I.I.I.I.I.I.I.I.k k k D.u.4.k b.#.X.R -     O k k k k I.I.I.I.I.I.I.I.I.I.I.I.",
"I.I.I.I.I.I.I.I.I.k k F J.s.z.z e.@.~ H +   o j k k k I.I.I.I.I.I.I.I.I.I.I.I.I.",
"I.I.I.I.I.I.I.I.k k k C.K.G.l B.&.X.I %   X k k k k I.I.I.I.I.I.I.I.I.I.I.I.I.I.",
"I.I.I.I.I.I.I.I.k k c K.K.F.D 7.+.R =   . s k k k I.I.I.I.I.I.I.I.I.I.I.I.I.I.I.",
"I.I.I.I.I.I.I.k k k c.K.J.z.4.+.E ;   . s k k k I.I.I.I.I.I.I.I.I.I.I.I.I.I.I.I.",
"I.I.I.I.I.I.I.k k k G.J.i.6.@.R ;     e k k k I.I.I.I.I.I.I.I.I.I.I.I.I.I.I.I.I.",
"I.I.I.I.I.I.I.k k Z s.i.0.@.R =     w k k k I.I.I.I.I.I.I.I.I.I.I.I.I.I.I.I.I.I.",
"I.I.I.I.I.I.k k k m.t.0.@.T &     w k k k k I.I.I.I.I.I.I.I.I.I.I.I.I.I.I.I.I.I.",
"I.I.I.I.I.I.k k k 3.*.+.T $     w k k k k I.I.I.I.I.I.I.I.I.I.I.I.I.I.I.I.I.I.I.",
"I.I.I.I.I.I.k k l $...Y &   . q k k k k I.I.I.I.I.I.I.I.I.I.I.I.I.I.I.I.I.I.I.I.",
"I.I.I.I.I.I.k k V ( I =   X s k k k k I.I.I.I.I.I.I.I.I.I.I.I.I.I.I.I.I.I.I.I.I.",
"I.I.I.I.I.I.k k M T ;   O j k k k k I.I.I.I.I.I.I.I.I.I.I.I.I.I.I.I.I.I.I.I.I.I.",
"I.I.I.I.I.I.k k k v 6 s k k k k I.I.I.I.I.I.I.I.I.I.I.I.I.I.I.I.I.I.I.I.I.I.I.I.",
"I.I.I.I.I.I.I.k k k k k k k k I.I.I.I.I.I.I.I.I.I.I.I.I.I.I.I.I.I.I.I.I.I.I.I.I.",
"I.I.I.I.I.I.I.k k k k k k I.I.I.I.I.I.I.I.I.I.I.I.I.I.I.I.I.I.I.I.I.I.I.I.I.I.I.",
"I.I.I.I.I.I.I.I.I.I.k I.I.I.I.I.I.I.I.I.I.I.I.I.I.I.I.I.I.I.I.I.I.I.I.I.I.I.I.I.",
"I.I.I.I.I.I.I.I.I.I.I.I.I.I.I.I.I.I.I.I.I.I.I.I.I.I.I.I.I.I.I.I.I.I.I.I.I.I.I.I.",
"I.I.I.I.I.I.I.I.I.I.I.I.I.I.I.I.I.I.I.I.I.I.I.I.I.I.I.I.I.I.I.I.I.I.I.I.I.I.I.I.",
"I.I.I.I.I.I.I.I.I.I.I.I.I.I.I.I.I.I.I.I.I.I.I.I.I.I.I.I.I.I.I.I.I.I.I.I.I.I.I.I.",
"I.I.I.I.I.I.I.I.I.I.I.I.I.I.I.I.I.I.I.I.I.I.I.I.I.I.I.I.I.I.I.I.I.I.I.I.I.I.I.I.",
"I.I.I.I.I.I.I.I.I.I.I.I.I.I.I.I.I.I.I.I.I.I.I.I.I.I.I.I.I.I.I.I.I.I.I.I.I.I.I.I.",
"I.I.I.I.I.I.I.I.I.I.I.I.I.I.I.I.I.I.I.I.I.I.I.I.I.I.I.I.I.I.I.I.I.I.I.I.I.I.I.I.",
"I.I.I.I.I.I.I.I.I.I.I.I.I.I.I.I.I.I.I.I.I.I.I.I.I.I.I.I.I.I.I.I.I.I.I.I.I.I.I.I.",
"I.I.I.I.I.I.I.I.I.I.I.I.I.I.I.I.I.I.I.I.I.I.I.I.I.I.I.I.I.I.I.I.I.I.I.I.I.I.I.I."
};
