/* XPM */
static char *_480183217080[] = {
/* columns rows colors chars-per-pixel */
"40 60 171 2 ",
"   c #23053B",
".  c #3B2039",
"X  c #4D3536",
"o  c #5E4734",
"O  c #6C562F",
"+  c #7A642C",
"@  c #7E643D",
"#  c #290746",
"$  c #2C074A",
"%  c #2E084E",
"&  c #270642",
"*  c #2F0850",
"=  c #330955",
"-  c #360A5B",
";  c #3A0C63",
":  c #3E0D69",
">  c #4A2259",
",  c #502F4C",
"<  c #410E6E",
"1  c #430F72",
"2  c #461076",
"3  c #471079",
"4  c #49117C",
"5  c #6B485A",
"6  c #6E4F4D",
"7  c #6E4860",
"8  c #73496B",
"9  c #7E5866",
"0  c #877027",
"q  c #937C23",
"w  c #947C2A",
"e  c #987C34",
"r  c #9C7E45",
"t  c #A37E5C",
"y  c #9B726A",
"u  c #B59E0C",
"i  c #A0881C",
"p  c #AB9318",
"a  c #B79E18",
"s  c #A3882D",
"d  c #CAB100",
"f  c #D4BB00",
"g  c #D7BB1A",
"h  c #DEBE3B",
"j  c #D1B23A",
"k  c #CEB228",
"l  c #DDC400",
"z  c #E6CC00",
"x  c #E0C405",
"c  c #E3C718",
"v  c #E4C81A",
"b  c #E1C515",
"n  c #E0C13B",
"m  c #B59349",
"M  c #AE8A59",
"N  c #A9894A",
"B  c #BE956B",
"V  c #C09E4C",
"C  c #C49E5C",
"Z  c #DEBB54",
"A  c #DBB753",
"S  c #CAA847",
"D  c #E0BF54",
"F  c #C29578",
"G  c #D4AC65",
"H  c #D6AD78",
"J  c #D2A777",
"K  c #DBB570",
"L  c #4E1283",
"P  c #501387",
"I  c #52148B",
"U  c #561691",
"Y  c #581695",
"T  c #5B179A",
"R  c #5D189E",
"E  c #6219A5",
"W  c #661BAC",
"Q  c #6A1CB3",
"!  c #6E1EBA",
"~  c #711FBF",
"^  c #6E2BA0",
"/  c #721FC1",
"(  c #7620C7",
")  c #7721C9",
"_  c #7921CC",
"`  c #7D23D3",
"'  c #853EB0",
"]  c #823DAB",
"[  c #8E598A",
"{  c #B37F8B",
"}  c #AE749C",
"|  c #A36D8E",
" . c #8D4CA6",
".. c #BA78B4",
"X. c #8225DC",
"o. c #8626E2",
"O. c #8827E6",
"+. c #8A27E9",
"@. c #8D29ED",
"#. c #922DEE",
"$. c #9631EF",
"%. c #9934EF",
"&. c #9435E3",
"*. c #9B37F0",
"=. c #9E3BF0",
"-. c #A03FF1",
";. c #9341CB",
":. c #9E50C9",
">. c #9C44D8",
",. c #AB5AD6",
"<. c #A85EC3",
"1. c #B56AD2",
"2. c #B466DE",
"3. c #BA72D4",
"4. c #BF7CD4",
"5. c #B167C5",
"6. c #A64BE6",
"7. c #B15FE8",
"8. c #A344F1",
"9. c #A649F2",
"0. c #A94DF2",
"q. c #AC54F3",
"w. c #AF59F4",
"e. c #B15DF3",
"r. c #B667E9",
"t. c #B86DEA",
"y. c #BE78E6",
"u. c #B564F4",
"i. c #B769F4",
"p. c #BA6DF4",
"a. c #BD73F5",
"s. c #BF78F6",
"d. c #C07ED4",
"f. c #C07BE7",
"g. c #C17CF6",
"h. c #BE8B8B",
"j. c #B88098",
"k. c #BE84A0",
"l. c #CA9985",
"z. c #C48F93",
"x. c #CE9D96",
"c. c #C89494",
"v. c #D09F96",
"b. c #D6AA88",
"n. c #DBB489",
"m. c #D3A396",
"M. c #D7AC97",
"N. c #D8AD97",
"B. c #DAB198",
"V. c #C48AA2",
"C. c #CE9AA3",
"Z. c #CA92A4",
"A. c #C283BC",
"S. c #C688BD",
"D. c #CB93BD",
"F. c #CE99BE",
"G. c #CD97B1",
"H. c #D19EB6",
"J. c #D6A9A5",
"K. c #D4A4B7",
"L. c #C281D4",
"P. c #CC95D7",
"I. c #CF9AD7",
"U. c #C88CCA",
"Y. c #C88BE0",
"T. c #C88BE7",
"R. c #CD96E2",
"E. c #C584F7",
"W. c #C98CF7",
"Q. c #C98BF8",
"!. c None",
/* pixels */
"!.!.!.!.!.!.!.!.!.!.!.!.!.!.!.!.!.!.!.!.!.!.!.!.!.!.!.!.!.!.!.!.!.!.!.!.!.!.!.!.",
"!.!.!.!.!.!.!.!.!.!.!.!.!.!.!.!.!.!.!.!.!.!.!.!.!.!.!.!.!.!.!.!.!.!.!.!.!.!.!.!.",
"!.!.!.!.!.!.!.!.!.!.!.!.!.!.!.!.!.!.!.!.!.!.!.!.!.!.!.!.!.!.!.!.!.!.!.!.!.!.!.!.",
"!.!.!.!.!.!.!.!.!.!.!.!.!.!.!.!.!.!.!.!.!.!.!.!.!.!.!.!.!.!.!.!.!.!.!.!.!.!.!.!.",
"!.!.!.!.!.!.!.!.!.!.!.!.!.z z z z z z z z z !.!.!.!.!.!.!.!.!.!.!.!.!.!.!.!.!.!.",
"!.!.!.!.!.!.!.!.!.!.z z z z z z z z z z z z z z z z z !.!.!.!.!.!.!.!.!.!.!.!.!.",
"!.!.!.!.!.!.!.!.z z z z z z z v v z z z z z z z z z z z z z !.!.!.!.!.!.!.!.!.!.",
"!.!.!.!.!.!.!.z z z z z B.K.P.g.g.T.P.P.U.B.n.K v z z z z z z z !.!.!.!.!.!.!.!.",
"!.!.!.!.!.!.z z z z n.R.g.a.p.i.p.p.a.g.g.E.E.Q.Q.T.U.m.c z z z z z !.!.!.!.!.!.",
"!.!.!.!.!.!.z z z B.E.a.e.0.1.1.1.1.e.u.p.a.g.g.E.g.g.p.r.A.n z z z z !.!.!.!.!.",
"!.!.!.!.!.z z z n.E.p.q.V.h z z z z v n H m.D.f.a.a.p.u.w.9.6.z.z z z !.!.!.!.!.",
"!.!.!.!.!.z z v T.s.u.G z z z K m.C.C.C.C.C.C.C.t.u.e.w.0.-.#.+.F z z z !.!.!.!.",
"!.!.!.!.z z z J.E.a.Z.z z C.4.a.g.p.u.u.e.e.q.0.9.9.9.8.-.$.@.` ' z z z !.!.!.!.",
"!.!.!.!.z z z Y.g.p.n z D.a.g.g.a.i.e.e.q.0.9.-.*.*.$.$.#.#.X./ ^ m z z !.!.!.!.",
"!.!.!.!.z z Z a.s.p.v b.a.g.g.g.p.u.e.0.0.9.-.*.*.#.#.#.@.o./ Q T t z z z !.!.!.",
"!.!.!.!.z z H i.p.a.b.y.a.a.a.u.0.-.*.*.$.#.#.#.#.#.@.@.@.X./ E I 9 z z z !.!.!.",
"!.!.!.!.z z J q.u.u.i.u.u.e.0.%.@.` ! Q ^ ! ( ` o.O.@.@.+.` / E L 7 z z z !.!.!.",
"!.!.!.!.z z J 9.0.q.w.0.9.=.#.X.Q Y 4 2 4 I E ! ` o.+.@.@.` ! Y 4 > z z z !.!.!.",
"!.!.!.!.z z b $.*.-.-.-.$.#.X.! U : - = < 2 T ! ` o.@.@.+.` W I : = l z z !.!.!.",
"!.!.!.!.z z z <.#.#.$.#.#.o.) E 4 = > @ 6 8 R ( ` o.@.@.O./ R 2 = & l z z !.!.!.",
"!.!.!.!.!.z z z.O.@.@.@.@.X./ E L 5 f z z z k } +.@.@.+.` W L *   X z z z !.!.!.",
"!.!.!.!.!.z z z >.#.#.#.@.o.( Q R m z z z z z l.$.$.#.O./ I -     0 z z z !.!.!.",
"!.!.!.!.!.z z z z.$.*.#.#.+.` ( / B z z z z x.7.9.=.#.` Q 3 $   . l z z !.!.!.!.",
"!.!.!.!.!.!.z z z 5.*.*.#.@.o.X.o.&...Z.U.y.a.4.U.8.#.` E : $   p z z z !.!.!.!.",
"!.!.!.!.z z z z z A 9.=.$.#.@.@.#.*.8.w.p.f.G.c k.8.#.` W 2 > a z z z !.!.!.!.!.",
"!.!.!.z z z z D D.r.0.8.%.#.@.@.#.$.=.9.w.S.C.S.q.8.$.o.! y l z z z z !.!.!.!.!.",
"!.!.z z z v K.g.a.e.q.8.%.#.o.X.` ` X.o.@.#.$.*.*.$.#.@.`  .| j z z z z !.!.!.!.",
"!.!.z z v P.E.F.m.H c.8.%.O.( W T I L L U R ! ` @.@.@.@.+.X.X.` } z z z z !.!.!.",
"!.z z z K.W.B.z z m.r.9.#._ R 2 - #     % : L W ` o.@.#.#.@.#.@.@.:.b z z z !.!.",
"!.z z D W.R.z z H.a.e.8.+.W 1 &       . o o 5 Y ! X.@.#.$.$.$.$.@.o.} z z z !.!.",
"!.z z N.W.I.z N.a.i.q.%._ P $   o i d z z z z g | o.@.$.$.$.$.$.@.X.( C z z !.!.",
"z z z U.E.E.M.E.a.u.q.#.Q 2   i z z z z z z z z } @.#.#.#.@.#.#.o._ ! [ z z z !.",
"z z z L.a.s.g.a.u.q.=.O.E 2 o z z z z z z z z z 5.$.#.#.@.@.@.@.X.~ E Y g z z !.",
"z z z 3.u.i.i.u.9.8.$.` E 2 6 z z z !.!.!.z z z 6.*.$.#.@.@.@.+.` ! R P m z z !.",
"z z z 1.q.q.q.9.*.$.@._ W U 8 l z z !.!.z z z x.0.=.,.#.#.@.@.+.` Q Y 4 r z z z ",
"z z z ..=.-.=.*.$.@.+.` ( W ^ z z z z z z z v y.q.V.l.$.#.#.#.+._ W P < r z z z ",
"z z z k.$.$.$.#.@.@.+.X.` _ _ h.z z z z z v F.i.2.b c.=.*.$.$.+.( E L ; e z z z ",
"!.z z G @.@.@.@.@.@.+.O.O.O.@.$.V.h v v N.Y.a.a.A z 2.9.8.*.#.+./ R 1 - e z z z ",
"!.z z z &.` o.O.+.+.+.@.@.@.$.$.9.q.u.i.a.p.d.Z z m.e.q.9.*.#.X.! U : $ w z z z ",
"!.z z z h./ _ ` X.o.O.@.@.$.$.*.-.9.0.q.3.v.c z m.a.i.w.9.%.@.` W 4 =   u z z !.",
"!.!.z z l  .! ( _ ` o.+.@.@.$.*.=.-.6.n z z n H.g.a.i.q.-.$.O.~ U ;     l z z !.",
"!.!.z z x S E E W ! ` ` o.@.@.#.$.%.-.,.1.d.p.g.a.p.e.8.$.@._ E 1 #   + z z z !.",
"!.!.!.z z z M Y T R W ! _ ` O.+.@.#.$.=.0.q.u.u.u.w.8.$.+.) E 2 #     u z z !.!.",
"!.!.!.!.z z z M L P I Y E Q ( ) X.X.+.#.-.8.0.0.8.$.@.` ! Y : &     O z z z !.!.",
"!.!.!.!.z z z z N 2 2 2 4 P Y R W ! ( X.o.+.@.o._ ~ E I 2 =       X l z z z !.!.",
"!.!.!.!.!.z z z z k , - - ; : 2 3 L P I Y Y I P 4 1 - %         o f z z z !.!.!.",
"!.!.!.!.!.!.z z z z z s , # & # $ % % % % % % #               0 l z z z !.!.!.!.",
"!.!.!.!.!.!.!.!.z z z z z p + .                         o q d z z z z !.!.!.!.!.",
"!.!.!.!.!.!.!.!.!.z z z z z z z d u q q q q q q i u d l z z z z z z !.!.!.!.!.!.",
"!.!.!.!.!.!.!.!.!.!.!.z z z z z z z z z z z z z z z z z z z z z !.!.!.!.!.!.!.!.",
"!.!.!.!.!.!.!.!.!.!.!.!.!.!.z z z z z z z z z z z z z z z z !.!.!.!.!.!.!.!.!.!.",
"!.!.!.!.!.!.!.!.!.!.!.!.!.!.!.!.!.!.z z z z z z !.!.!.!.!.!.!.!.!.!.!.!.!.!.!.!.",
"!.!.!.!.!.!.!.!.!.!.!.!.!.!.!.!.!.!.!.!.!.!.!.!.!.!.!.!.!.!.!.!.!.!.!.!.!.!.!.!.",
"!.!.!.!.!.!.!.!.!.!.!.!.!.!.!.!.!.!.!.!.!.!.!.!.!.!.!.!.!.!.!.!.!.!.!.!.!.!.!.!.",
"!.!.!.!.!.!.!.!.!.!.!.!.!.!.!.!.!.!.!.!.!.!.!.!.!.!.!.!.!.!.!.!.!.!.!.!.!.!.!.!.",
"!.!.!.!.!.!.!.!.!.!.!.!.!.!.!.!.!.!.!.!.!.!.!.!.!.!.!.!.!.!.!.!.!.!.!.!.!.!.!.!.",
"!.!.!.!.!.!.!.!.!.!.!.!.!.!.!.!.!.!.!.!.!.!.!.!.!.!.!.!.!.!.!.!.!.!.!.!.!.!.!.!.",
"!.!.!.!.!.!.!.!.!.!.!.!.!.!.!.!.!.!.!.!.!.!.!.!.!.!.!.!.!.!.!.!.!.!.!.!.!.!.!.!.",
"!.!.!.!.!.!.!.!.!.!.!.!.!.!.!.!.!.!.!.!.!.!.!.!.!.!.!.!.!.!.!.!.!.!.!.!.!.!.!.!.",
"!.!.!.!.!.!.!.!.!.!.!.!.!.!.!.!.!.!.!.!.!.!.!.!.!.!.!.!.!.!.!.!.!.!.!.!.!.!.!.!."
};
