/* XPM */
static char *_480183212878[] = {
/* columns rows colors chars-per-pixel */
"40 60 169 2 ",
"   c #23053B",
".  c #3B2039",
"X  c #4D3536",
"o  c #5D4732",
"O  c #6C562F",
"+  c #70563C",
"@  c #7C6431",
"#  c #260641",
"$  c #290745",
"%  c #2E084E",
"&  c #310953",
"*  c #350A5B",
"=  c #380B5F",
"-  c #3B0C65",
";  c #3E0D6A",
":  c #4B235B",
">  c #410E6E",
",  c #430F72",
"<  c #461076",
"1  c #471079",
"2  c #4B117D",
"3  c #512469",
"4  c #877027",
"5  c #937C23",
"6  c #997C37",
"7  c #806440",
"8  c #9C7E45",
"9  c #855976",
"0  c #A0881C",
"q  c #B29A13",
"w  c #A18825",
"e  c #AE9328",
"r  c #BB9E31",
"t  c #A6883D",
"y  c #C0A802",
"u  c #CAB100",
"i  c #D1B70E",
"p  c #CDB220",
"a  c #DEBE3B",
"s  c #D0B231",
"d  c #DDC400",
"f  c #E6CC00",
"g  c #E2C618",
"h  c #E4C91A",
"j  c #E0C411",
"k  c #E1C13C",
"l  c #B18F52",
"z  c #BD9569",
"x  c #C49E5A",
"c  c #DEBB54",
"v  c #CEAD43",
"b  c #C69A75",
"n  c #DBB567",
"m  c #CFA275",
"M  c #D4A977",
"N  c #D6AD78",
"B  c #D2A677",
"V  c #DCB579",
"C  c #DEB979",
"Z  c #D5AC65",
"A  c #E0BD68",
"S  c #E1C154",
"D  c #4E1384",
"F  c #53148C",
"G  c #501387",
"H  c #561691",
"J  c #581695",
"K  c #5D189E",
"L  c #5C179C",
"P  c #5E2680",
"I  c #672992",
"U  c #5F18A1",
"Y  c #621AA6",
"T  c #651BAC",
"R  c #691CB2",
"E  c #6E1EBA",
"W  c #711FBF",
"Q  c #722CA5",
"!  c #7F2FBF",
"~  c #7D4B83",
"^  c #731FC2",
"/  c #7520C6",
"(  c #7721C9",
")  c #7921CC",
"_  c #7D22D4",
"`  c #8A4C9F",
"'  c #996787",
"]  c #B27F87",
"[  c #A7738B",
"{  c #924DAF",
"}  c #A05CB3",
"|  c #BA7AAD",
" . c #B36DB9",
".. c #BF7FBB",
"X. c #A568A2",
"o. c #822FC2",
"O. c #8225DC",
"+. c #9234DF",
"@. c #8D32D6",
"#. c #8626E3",
"$. c #8827E7",
"%. c #8A27E9",
"&. c #8D29ED",
"*. c #922DEE",
"=. c #9632EF",
"-. c #9934EF",
";. c #993AE4",
":. c #9B36F0",
">. c #9D3BF0",
",. c #A03FF1",
"<. c #8F40C3",
"1. c #9A44D2",
"2. c #AA59D4",
"3. c #A65DC0",
"4. c #B66DC6",
"5. c #AF61D1",
"6. c #B569DE",
"7. c #B66AD8",
"8. c #BD79D4",
"9. c #A343F1",
"0. c #A74AF2",
"q. c #A94EF2",
"w. c #AC53F3",
"e. c #AF58F3",
"r. c #B15CF4",
"t. c #AE5AE8",
"y. c #B667E9",
"u. c #BD76E0",
"i. c #BD76E7",
"p. c #B564F4",
"a. c #B769F4",
"s. c #BA6DF5",
"d. c #BD74F5",
"f. c #BF78F6",
"g. c #C17CEB",
"h. c #C17CF6",
"j. c #BB8B84",
"k. c #BF84A0",
"l. c #CD9D86",
"z. c #CF9E96",
"x. c #CA9695",
"c. c #D09F96",
"v. c #C28C92",
"b. c #D4A888",
"n. c #D4A788",
"m. c #D2A297",
"M. c #D7AA97",
"N. c #C183AE",
"B. c #CC98A3",
"V. c #C485BD",
"C. c #C88EBE",
"Z. c #CB93B1",
"A. c #CC93BD",
"S. c #D09CBE",
"D. c #D8ABB3",
"F. c #CE97CB",
"G. c #D19DCA",
"H. c #C384D5",
"J. c #CC94D2",
"K. c #D1A1CB",
"L. c #CA8FED",
"P. c #C585E9",
"I. c #CF99E8",
"U. c #C584F7",
"Y. c #CA8EF8",
"T. c #C88AF7",
"R. c #CC92F8",
"E. c #D19CF9",
"W. c None",
/* pixels */
"W.W.W.W.W.W.W.W.W.W.W.W.W.W.W.W.W.W.W.W.W.W.W.W.W.W.W.W.W.W.W.W.W.W.W.W.W.W.W.W.",
"W.W.W.W.W.W.W.W.W.W.W.W.W.W.W.W.W.W.W.W.W.W.W.W.W.W.W.W.W.W.W.W.W.W.W.W.W.W.W.W.",
"W.W.W.W.W.W.W.W.W.W.W.W.W.W.W.W.W.W.W.W.W.W.W.W.W.W.W.W.W.W.W.W.W.W.W.W.W.W.W.W.",
"W.W.W.W.W.W.W.W.W.W.W.W.W.W.W.W.W.W.W.W.W.W.W.W.W.W.W.W.W.W.W.W.W.W.W.W.W.W.W.W.",
"W.W.W.W.W.W.W.W.W.W.W.W.W.W.W.W.W.W.W.W.W.W.W.W.W.W.W.W.W.W.W.W.W.W.W.W.W.W.W.W.",
"W.W.W.W.W.W.W.W.W.W.W.W.W.W.W.W.f f f f f f f f f W.W.W.W.W.W.W.W.W.W.W.W.W.W.W.",
"W.W.W.W.W.W.W.W.W.W.W.W.W.W.f f f f f f f f f f f f f f W.W.W.W.W.W.W.W.W.W.W.W.",
"W.W.W.W.W.W.W.W.W.W.W.f f f f f f f h k C C h f f f f f f f W.W.W.W.W.W.W.W.W.W.",
"W.W.W.W.W.W.W.W.W.W.f f f f f A D.J.Y.R.Y.Y.T.L.A.b.f f f f f W.W.W.W.W.W.W.W.W.",
"W.W.W.W.W.W.W.W.W.f f f f C K.T.U.h.h.h.h.U.U.h.d.a.6.B f f f f W.W.W.W.W.W.W.W.",
"W.W.W.W.W.W.W.W.f f f h D.U.h.d.a.8.Z.B.Z.H.h.d.s.r.w.,.| f f f f W.W.W.W.W.W.W.",
"W.W.W.W.W.W.W.f f f S J.h.d.u.c.k f f f f h m.s.a.r.0.>.*.| f f f W.W.W.W.W.W.W.",
"W.W.W.W.W.W.f f f S L.h.s.B.f f k c.H.H.u.a.p.r.w.0.,.=.&.#.j.f f f W.W.W.W.W.W.",
"W.W.W.W.W.f f f S L.h.d.N f k V.r.w.w.w.w.q.0.9.,.:.:.*.%.O.o.s f f W.W.W.W.W.W.",
"W.W.W.W.f f f h L.h.i.c f z.t.w.0.,.>.>.,.,.,.>.=.*.*.&.#._ ! ' f f f W.W.W.W.W.",
"W.W.W.W.f f f G.U.f.b.f c.r.q.>.&.O.O.$.*.=.=.*.*.*.&.&.#.^ R Q d f f W.W.W.W.W.",
"W.W.W.W.f f C U.f.A.f n.e.q.=._ T L I Q ^ _ $.&.%.%.&.&.O.^ E Y l f f W.W.W.W.W.",
"W.W.W.f f f G.h.f.n g y.w.=./ G : e f s Y ! ^ O.O.$.&.&.#.^ R L 9 f f f W.W.W.W.",
"W.W.W.f f f P.h.g.f C.w.:._ F * e f f f ` ( ^ O.O.$.%.&.%.^ R J P f f f W.W.W.W.",
"W.W.W.f f n d.d.g.c p.9.%.T < @ f f f f <.O.} @.$.%.&.&.%.^ R J 2 p f f W.W.W.W.",
"W.W.W.f f M p.a.s.u.w.=._ L < p f f f m =.1.g  .&.*.*.*.%._ R H 1 r f f W.W.W.W.",
"W.W.W.f f M w.e.r.e.>.%.^ U 9 f f f g y.e.x.f 4.:.:.=.*.%.^ T H , t f f W.W.W.W.",
"W.W.W.f f Z 9.9.0.9.-.#./ E z f f g H.h.H.f c q.0.,.:.*.%._ T F , 8 f f f W.W.W.",
"W.W.W.f f f ;.=.-.-.&.#.O._ m f B 8.h.H.g g 8.r.q.9.:.*.%.^ T G > 6 f f f W.W.W.",
"W.W.W.f f f 3.%.%.%.$.#.$.&. .5.w.r.c.g c.8.p.r.q.9.=.*.%._ Y G ; 6 f f f W.W.W.",
"W.W.W.W.f f b ( ( / / ( _ O.%.*.*.=.2.9.0.w.w.w.9.:.*.&.#.^ Y D - 6 f f f W.W.W.",
"W.W.W.W.f f f ` T Y K K Y Y Y T T R ^ _ ;.=.>.-.:.*.&.&.$.^ U 2 * 6 f f f W.W.W.",
"W.W.W.W.f f f v J D 1 < ; ; * * = , D ' v #.$.&.&.%.%.&.#.^ L , * w f f W.W.W.W.",
"W.W.W.W.W.f f f l 3 * $           + r f x ( ) O.O.#.%.&.#.E J ; & q f f W.W.W.W.",
"W.W.W.W.W.W.f f f u 4 X     o 4 y f f f [ / o.X.O.#.&.&.O.R F - $ y f f W.W.W.W.",
"W.W.W.W.W.W.f f f f f f d d f f f f f f o.O.] j $.&.*.&._ T D * # d f f W.W.W.W.",
"W.W.W.W.W.W.W.W.f f f f f f f f f f f v.&.;.g g *.*.:.*._ U , % o f f f W.W.W.W.",
"W.W.W.W.W.W.W.f f f f f f f f f f f g 2.=.| f l.,.9.>.*.( H ; # 4 f f f W.W.W.W.",
"W.W.W.W.W.W.f f f f f f f f f f f f V.0.4.f f V.w.q.,.*.E D *   0 f f W.W.W.W.W.",
"W.W.W.W.W.W.f f f C S f f f f f h V.w.7.g f N s.p.e.,.#.T > $   u f f W.W.W.W.W.",
"W.W.W.W.W.f f f D.E.R.F.m.N b.Z.y.r.8.g f h P.h.a.w.=.) F *   o f f f W.W.W.W.W.",
"W.W.W.W.W.f f f I.R.U.d.r.q.w.w.6.B.f f f G.U.h.p.9.%.R , #   0 f f f W.W.W.W.W.",
"W.W.W.W.W.f f S U.U.d.6.5.2.| l.f f f g G.T.h.s.q.=.( F &   . d f f W.W.W.W.W.W.",
"W.W.W.W.W.f f N f.f.a.a f f f f f f C I.Y.U.d.w.>.O.L -     5 f f f W.W.W.W.W.W.",
"W.W.W.W.W.f f M r.p.r.t.N.l.M V M.G.R.Y.U.d.r.>.%.T >     X d f f W.W.W.W.W.W.W.",
"W.W.W.W.W.f f B 0.q.w.0.9.0.r.d.h.U.U.h.d.e.>.$.R 1 #     q f f f W.W.W.W.W.W.W.",
"W.W.W.W.W.f f a >.,.9.0.0.0.r.a.d.d.d.p.q.:.#.T < #     4 f f f W.W.W.W.W.W.W.W.",
"W.W.W.W.W.f f g *.*.:.>.9.0.w.r.r.r.0.,.&.^ Y > #     4 f f f f W.W.W.W.W.W.W.W.",
"W.W.W.W.W.f f f 1._ _ #.$.&.=.=.*.*.%.^ T D =       4 f f f f W.W.W.W.W.W.W.W.W.",
"W.W.W.W.W.f f f ] R U U L K Y T Y K H 2 - #       4 f f f f W.W.W.W.W.W.W.W.W.W.",
"W.W.W.W.W.W.f f d ~ D < ; ; ; ; - * % #         5 f f f f W.W.W.W.W.W.W.W.W.W.W.",
"W.W.W.W.W.W.f f f f 8 : % $ #               O u f f f f W.W.W.W.W.W.W.W.W.W.W.W.",
"W.W.W.W.W.W.W.f f f f d 0 O .         X @ y f f f f f W.W.W.W.W.W.W.W.W.W.W.W.W.",
"W.W.W.W.W.W.W.W.f f f f f f f d q u d f f f f f f W.W.W.W.W.W.W.W.W.W.W.W.W.W.W.",
"W.W.W.W.W.W.W.W.W.W.f f f f f f f f f f f f f W.W.W.W.W.W.W.W.W.W.W.W.W.W.W.W.W.",
"W.W.W.W.W.W.W.W.W.W.W.W.W.f f f f f f f f W.W.W.W.W.W.W.W.W.W.W.W.W.W.W.W.W.W.W.",
"W.W.W.W.W.W.W.W.W.W.W.W.W.W.W.W.W.W.W.W.W.W.W.W.W.W.W.W.W.W.W.W.W.W.W.W.W.W.W.W.",
"W.W.W.W.W.W.W.W.W.W.W.W.W.W.W.W.W.W.W.W.W.W.W.W.W.W.W.W.W.W.W.W.W.W.W.W.W.W.W.W.",
"W.W.W.W.W.W.W.W.W.W.W.W.W.W.W.W.W.W.W.W.W.W.W.W.W.W.W.W.W.W.W.W.W.W.W.W.W.W.W.W.",
"W.W.W.W.W.W.W.W.W.W.W.W.W.W.W.W.W.W.W.W.W.W.W.W.W.W.W.W.W.W.W.W.W.W.W.W.W.W.W.W.",
"W.W.W.W.W.W.W.W.W.W.W.W.W.W.W.W.W.W.W.W.W.W.W.W.W.W.W.W.W.W.W.W.W.W.W.W.W.W.W.W.",
"W.W.W.W.W.W.W.W.W.W.W.W.W.W.W.W.W.W.W.W.W.W.W.W.W.W.W.W.W.W.W.W.W.W.W.W.W.W.W.W.",
"W.W.W.W.W.W.W.W.W.W.W.W.W.W.W.W.W.W.W.W.W.W.W.W.W.W.W.W.W.W.W.W.W.W.W.W.W.W.W.W.",
"W.W.W.W.W.W.W.W.W.W.W.W.W.W.W.W.W.W.W.W.W.W.W.W.W.W.W.W.W.W.W.W.W.W.W.W.W.W.W.W.",
"W.W.W.W.W.W.W.W.W.W.W.W.W.W.W.W.W.W.W.W.W.W.W.W.W.W.W.W.W.W.W.W.W.W.W.W.W.W.W.W."
};
